<svg width="383" height="294" viewBox="0 0 383 294" fill="none" xmlns="http://www.w3.org/2000/svg">
<path d="M252.95 227.557L271.82 233.967C281.01 237.097 289.38 241.457 297.64 246.547L313.41 256.277C321.77 261.437 329.67 266.847 339.3 268.887C343.51 269.777 347.7 270.037 351.98 270.537L361.21 271.607C369.06 272.517 373.98 277.287 378.76 283.277C380.36 285.277 381.56 287.467 382.35 289.937C382.85 291.507 381.85 293.437 380.05 293.547C376.08 293.787 372.19 293.737 368.18 293.517C367.44 293.477 366.71 293.377 365.99 293.227C361.82 292.367 346.09 289.367 333.96 290.047C329.11 290.317 326.77 283.897 322.43 281.697C317.2 279.037 311.89 277.037 306.14 275.877L298.56 274.347L281.76 271.307C278.22 270.667 274.84 269.687 271.26 269.427C265.58 269.007 260.24 267.727 255.51 264.547L245.03 257.497C242.52 255.807 240.12 254.487 237.1 253.967C231.9 253.067 226.92 251.707 222.06 249.587C218.18 247.897 214.5 246.967 210.28 246.567C198.2 245.427 186.5 243.547 174.59 241.137C163.83 238.957 153.86 235.627 143.65 231.747L129.53 226.377C127.88 225.747 125.82 225.797 124.26 226.547L115.79 230.657C106.62 235.107 97.1901 237.757 86.7101 240.027C93.0701 242.327 98.9501 244.537 104.67 247.627L107.13 248.957C109 250.357 110.92 251.707 112.31 253.527C114.55 256.457 114.52 260.247 112.41 263.207C111 265.177 109.23 266.797 107.28 268.267C99.36 274.237 98.6901 275.097 92.4201 282.757C90.3701 285.257 87.4401 287.177 84.0201 287.167L66.9 287.107C65.95 287.107 64.24 286.617 63.65 285.967C62 284.157 63.89 280.307 66.59 279.547L72.59 277.857C75.08 277.157 77.2401 275.197 78.41 272.807L83.3001 262.787C85.6301 258.007 66.3001 257.127 64.0801 256.927L56.6101 256.277C54.3201 256.077 52.0601 255.637 49.7601 255.247C42.8801 254.067 36.1301 252.257 29.5701 249.877C23.8901 247.817 18.53 245.717 13.05 243.207C10.14 241.877 7.40005 240.127 5.09005 237.947C-0.499945 232.677 -1.01995 223.317 1.29005 216.607C5.42005 204.597 20.8 197.277 32.25 194.157C45.46 190.567 54.5401 190.627 68.0101 191.407L76.4601 191.897C77.1501 191.937 78.8601 191.237 79.0201 190.517C80.0501 185.987 77.01 177.217 75.19 172.887L72.47 166.427C67.26 154.057 62.0501 141.997 57.5101 129.327C55.1601 122.777 53.4701 116.357 52.1701 109.547C51.6101 106.637 51.3901 103.757 51.2001 100.867C50.4801 90.1369 53.7901 88.0569 52.4501 82.6269C51.2501 77.7869 51.48 72.9469 53.15 68.2969C55.83 60.8269 62.44 55.9369 70.34 55.3169C72.24 55.1669 74.5301 55.2469 76.2601 54.6869C80.0601 53.4469 83.4901 52.1869 87.4601 51.7869C90.1901 51.5169 92.6001 50.7069 95.1101 49.5269C95.8801 49.1669 97.57 48.3469 97.78 47.5569C98.94 43.2669 97.8301 37.6269 96.7601 33.3469C95.2201 27.1669 95.4601 20.9469 97.6401 14.9369C100.01 8.37691 105.61 2.09691 112.67 0.586908C116.75 -0.293092 120.98 -0.173099 125.05 0.876901C131.05 2.4169 136.74 4.23691 142.6 6.10691C145.22 6.94691 146.83 8.9369 146.87 11.7369C146.95 17.2769 143.44 18.1369 143.85 20.7069L144.73 26.2469C146.4 36.7269 142.31 34.7269 144.19 40.1369L145.67 44.4069C145.84 44.8969 145.7 46.2469 145.4 46.5969C144.36 47.7669 142.35 47.1569 141.57 48.2669C141.29 54.6069 141.78 52.9269 138.66 56.8169C138.5 57.0269 138.2 57.8169 138.35 58.0169C138.55 58.2769 139.13 58.5869 139.52 58.6669C149.26 60.5369 156.21 63.2069 164.38 68.7969L170.27 72.8169C174.62 75.7869 174.94 77.7069 178.04 80.2869C180.38 82.2369 181.96 84.2169 183.62 84.3269C191.34 84.8269 197.97 85.3169 205.05 88.7069C208.09 90.1569 210.83 91.9969 213.59 93.8369C215.52 95.1269 217.41 95.5469 219.69 95.3469L225.23 94.8569C235.83 93.9169 245.05 93.8269 255.44 96.1369C263.06 97.8269 269.17 99.0469 277.01 99.3969C281.13 99.5769 280.2 96.2569 284.58 93.3669L286.91 91.8369C288.15 91.0169 290.29 90.8169 290.93 89.4169L292.93 80.8869C293.29 80.1069 294.27 79.2369 294.93 79.0069C295.63 78.7669 297.37 78.9569 297.77 79.5369C299.63 82.1769 298.8 85.3769 301.53 91.3869C302.95 94.5069 308.84 88.9669 310.47 87.5269C312.1 86.0869 315.1 83.9869 316.77 85.9069C317.11 86.3069 317.37 87.5769 317.08 88.0169L315.55 90.2969C315.02 91.0869 314.8 91.5269 314.34 92.6269L319.15 91.7069C322.93 90.9869 325.8 90.4369 329.51 91.3169C331.28 91.7369 332.25 93.9169 331.59 95.2269C331.35 95.7069 330.26 96.1869 329.77 96.3269C326.12 97.3069 322.81 98.5569 319.4 100.117L315.74 101.797L307.18 105.777C305.32 106.637 302.93 107.557 300.93 108.227L287.75 112.637C286.29 113.127 284.8 113.807 283.3 114.167C278.12 115.427 272.38 115.617 266.68 116.627L250.8 119.457C239.41 121.487 228.1 122.117 216.58 121.147C215.34 121.047 214.05 120.917 212.92 120.697L204.59 119.087C201.4 118.467 198.17 118.617 195.01 119.177L188.92 120.257C186.01 120.777 183.76 120.997 180.8 120.757C175.43 120.317 171.96 119.847 167.36 117.237L166.42 116.697C166.22 116.587 165.74 117.157 165.64 117.377C162.95 123.337 159.16 128.317 154.61 132.957C149.02 138.657 146.77 142.207 144.82 150.267C143.71 154.857 142.96 163.847 146.92 167.217L152.13 171.637C155.46 174.457 158.44 177.577 162.35 179.687C164.28 180.727 166.52 181.227 168.69 181.817C185.26 186.317 200.61 191.577 214.88 201.337C219.42 204.447 223.41 207.877 226.85 212.157C231.9 218.447 232.06 217.967 239.71 221.097C245.98 223.667 246.47 225.337 252.93 227.527L252.95 227.557ZM138.75 8.71691C136.08 7.64691 133.79 6.75691 130.87 6.08691C132.42 8.24691 138.56 11.0069 141 11.5069C141.27 11.5569 142.14 11.0569 142.01 10.8769C140.84 9.2969 141.85 9.95691 138.75 8.71691ZM133.74 56.2969L137.88 54.2769C138.06 54.1869 138.38 53.5469 138.46 53.3669C138.54 53.1869 137.89 52.8069 137.69 52.7569L133.75 51.8469C133.56 51.8069 133 51.2369 133.16 51.1469C133.27 51.0869 133.68 50.8069 133.78 50.7769L137.74 49.5869C138.05 49.4969 138.71 48.7469 138.57 48.4669C138.46 48.2569 138.15 47.8069 137.96 47.6369L135.79 45.6469C136.96 42.6369 138.7 44.9869 141.47 44.1069C142.96 43.6369 140.74 38.8869 141.06 36.6069C142 29.9069 142.5 28.4569 141.04 21.1469C139.09 20.1169 137.79 21.2169 136.52 19.4969C134.9 17.3069 133.29 15.3069 131.14 13.7569C128.15 11.5969 123.46 10.2069 121.03 13.4269C120.67 13.8969 120.61 15.3969 120.75 15.9669C122.16 21.4969 123.64 20.4869 124.11 24.6769L121.97 25.1369C114.55 26.7269 116.89 32.7369 114.4 33.5269C111.27 34.5169 111.23 29.3869 107.15 28.5369C104.53 27.9969 102.37 30.0769 102.27 32.7069C102.14 35.8669 103.47 38.9069 105.66 41.1769C106.71 42.2569 108.34 42.6169 109.74 42.5469L111.72 42.4469C113.15 45.5569 111.36 48.7469 113.51 49.3369L117.11 50.3169C124.26 52.2769 126.54 54.0569 133.74 56.3069V56.2969ZM113.13 69.3369C119.94 70.7269 131.75 70.4269 138.14 68.9569L144.32 67.5369L146.15 71.0169C151.44 74.5069 156.22 70.9969 164.84 74.4769C165.98 74.9369 167 75.4269 168.35 75.5169C164.26 71.8069 149.45 64.1169 144.72 63.2869C140.57 62.5569 136.46 62.1969 132.56 60.6069L123.6 56.9669C118.15 54.7469 112.9 52.8369 106.89 52.3669C100.56 51.8769 101.07 51.5769 95.5401 53.9269C91.2001 55.7669 89.2301 55.3469 84.2001 56.6669C80.1501 57.7369 74.0201 60.6369 71.7001 64.2169C72.3901 64.0269 73.0301 63.8269 73.4201 63.5969C79.3701 60.0069 85.8001 57.8869 92.8001 57.5369C95.0301 57.4269 97.5501 57.8569 99.0201 59.5469C100.79 61.5869 100.83 64.2669 100.63 67.0869C100.95 67.2569 102.09 67.3369 102.53 67.1869C108.3 65.2469 118.96 61.8969 123.81 64.6869C120.59 65.5969 115.05 66.3469 113.14 69.3269L113.13 69.3369ZM95.0801 81.4669C100.56 78.9969 98.2001 78.1169 106.51 79.5769C113.14 80.7369 119.45 80.2969 125.82 78.4069C130.42 77.0469 134.73 75.6369 138.93 73.5769C138.39 73.4669 137.47 73.3569 137.12 73.4569C123.62 77.3069 115.09 79.8269 100.68 76.5169C99.6 76.2669 98.79 76.2369 97.9 76.8769C95.09 78.8769 92.2201 80.4869 88.9801 81.6369L84.4201 83.2369C88.7801 83.2469 91.3 83.1769 95.1001 81.4669H95.0801ZM141.54 131.907L142.08 136.247C148.77 132.987 152.71 124.557 154.47 118.187C155.45 114.627 153.68 109.817 150.33 108.247C148.92 107.587 146.67 108.077 146.14 109.707C145.51 111.607 145.08 113.617 144.81 115.597L143.33 126.397C141.57 122.717 140.69 118.687 139.92 114.677C139.37 111.827 135.84 117.227 135.48 117.957C135.9 113.027 138.1 108.657 140.95 104.767C143.57 101.187 146.95 98.9669 150.62 96.5669L161.14 89.6969C163.97 87.8469 167.11 86.9469 170.47 86.8569C170.57 87.2269 170.25 87.3769 169.65 87.3269L164.85 90.6169C163.96 91.2269 162.78 92.6769 162.89 93.8569C163.01 95.0269 164.27 96.3669 165.29 96.8769C170.95 99.6969 176.7 101.457 182.94 102.517C192.62 104.167 198.55 103.497 208.49 104.997C194.68 109.177 179.88 110.197 165.57 103.317C165.82 104.037 166.29 104.837 166.75 105.247C170.13 108.307 174.03 110.537 178.55 111.447C193.63 114.507 205.61 109.297 209.67 109.697C215.1 110.227 216.56 112.687 223.72 113.907C225.89 114.277 228.01 114.607 230.23 114.697L234.48 114.867L230.22 112.067C232.83 111.607 234.67 111.797 237.11 111.867C246.97 112.147 256.58 111.667 266.33 110.297L278.26 108.627C278.6 108.577 279.31 108.467 279.33 108.187L279.42 107.197C279.5 106.237 279.78 105.387 280.34 104.497L281.57 107.367C288.55 104.357 292.75 104.497 299.63 102.517C299.57 100.787 299.54 99.5169 299.16 98.1869C297.72 93.1969 296.65 88.3769 295.84 83.1669C295.61 82.4169 295.52 82.4269 295.15 83.1669C294.55 86.1569 294.35 89.0269 294.5 92.0369L294.9 100.027C294.92 100.387 294.48 101.417 294.34 101.617C279.7 98.5569 283.03 103.767 277.8 103.487C270.14 103.077 262.84 102.267 255.38 100.647C247.73 98.9869 238.73 97.7569 230.98 98.4869L224.14 99.1369C220.92 99.4369 217.87 99.9069 214.59 99.5069C213.33 99.3569 211.78 98.1269 210.8 97.3569C207.46 94.6969 205.8 93.5469 201.86 91.7669C194.17 88.3069 182.32 87.3169 173.88 88.5669C174.42 88.0769 175.35 87.2069 175.74 86.5869C176.04 86.1069 175.16 84.7869 174.73 84.3769C168.56 78.3869 160.87 74.8169 152.38 78.3769C148.94 79.8169 146.2 81.7769 143.82 84.8569L138.87 83.7369C136.38 83.1769 133.79 82.8269 131.28 83.2369C124.81 84.2669 118.7 86.1369 113.04 89.3269L106.71 92.8869C105.99 93.2869 105.51 93.5669 104.66 93.9869L104.22 91.0169C103.83 88.3969 101.8 86.3069 98.9201 86.7269C96.7801 87.0369 94.55 87.5369 92.44 88.1669C87.12 89.7569 82.1301 90.5169 76.44 90.8469C76.39 95.8069 79.36 102.147 82.59 105.667C86.39 109.807 93.4 112.077 98.06 108.717C99.82 107.447 101.03 105.577 102.22 103.797C101.77 110.007 104.99 115.147 110.72 117.267C113.39 118.257 116.19 118.397 119.01 118.647C115.81 120.227 112.29 120.217 108.82 119.407C100.59 117.487 101.29 113.837 98.5101 115.107C94.7201 116.837 91.46 115.777 87.44 114.547C84.9 113.767 82.4501 113.127 80.0401 111.927C78.6001 111.207 76.68 109.677 76 108.257L73.7401 103.487C73.1001 105.557 73.23 107.227 73.3801 109.147C73.9301 116.077 80.32 114.407 79.84 120.607L79.53 124.727C79.51 124.987 79.6901 125.587 79.8301 125.797C80.3101 126.467 86.2801 124.707 88.4201 125.007C87.4801 125.967 86.82 126.517 85.84 127.297C83.55 129.107 81.6401 131.187 79.7901 133.547C77.5701 136.367 80.98 141.227 82.9 143.427C85.89 146.857 91.9901 148.097 92.3601 144.787C93.1001 138.237 92.1801 136.047 93.7701 128.327C94.3001 125.747 95.76 123.767 97.66 121.837L96.7001 126.447C96.1901 128.907 96.3901 132.027 97.9801 134.137C99.0801 135.607 101.4 136.157 103.05 136.737L108.07 138.497C107.26 138.847 106.6 139.067 105.8 139.137L99.4201 139.687C96.6801 139.927 97.9501 147.497 99.7701 149.787C103.1 153.977 111.92 154.537 116.46 152.547C117.48 152.097 118.48 151.257 119.55 150.487L120.67 153.927C121.61 156.807 123.53 164.327 125.8 166.017C128.84 168.277 132.86 168.207 136.06 166.577C138.34 165.407 139.83 163.207 139.77 160.587C139.64 154.317 139.24 146.587 137.02 140.887C135.57 137.157 131.16 138.137 129.75 136.717C131.11 135.307 132.3 134.257 133.91 133.567L140.25 130.867C140.54 130.747 141.38 130.627 141.42 130.867C141.45 131.057 141.53 131.537 141.58 131.917L141.54 131.907ZM307.34 96.4269C308.23 95.3169 309.02 94.4669 309.71 92.9369C307.4 94.4669 305.68 95.8069 303.71 97.4369C302.66 98.2969 302.48 99.9969 303.67 100.997L307.34 96.4269ZM308.38 100.757C310.04 100.547 310.95 100.057 312.16 99.4069C314.08 98.3769 316.07 97.4269 318.13 96.7669L325.65 94.3469L325.11 94.0069C320.29 94.5969 311.44 95.6769 308.38 100.767V100.757ZM73.69 128.227L74.4601 121.287L72.03 119.567C70.44 120.557 72.78 127.397 73.69 128.227ZM94.66 163.877L93.7601 159.437C89.3001 158.447 88.9001 159.527 84.3001 156.897C81.0701 155.057 86.52 163.887 92.62 168.257C97.44 171.707 93.8501 177.947 101.85 179.897C102.82 170.137 96 170.537 94.65 163.867L94.66 163.877ZM112.96 179.267C115.36 179.317 117.55 178.087 118.62 176.007C119.69 173.937 119.61 171.437 118.89 169.247L115.44 158.727L112.82 159.247C109.51 159.907 106.56 160.177 102.77 160.157C104.39 166.167 108.07 165.197 109.06 171.977C109.41 174.387 109.84 179.207 112.95 179.277L112.96 179.267ZM92.06 181.857C90.72 177.297 88.37 173.157 84.78 169.617C84.93 172.827 88.99 180.337 92.06 181.857ZM129.69 195.507C133.38 197.257 137.03 197.117 140.55 195.427C145.58 193.027 148.52 187.627 147.09 182.137C145.48 175.937 139.51 171.877 133.22 173.027C128.44 173.897 124.64 177.057 123.31 181.617C121.65 187.287 124.32 192.967 129.69 195.507ZM299.69 260.567C309.37 265.567 319 269.877 329.23 273.607C334.46 275.517 339.4 277.377 344.4 279.717C347.85 281.337 351.02 283.177 354.36 284.977L355.88 285.797C357.66 286.757 359.48 287.717 361.48 288.167C363.69 288.657 374.58 290.667 375.59 288.787C375.83 288.337 375 287.117 374.58 286.757L370.29 283.087C370.18 282.987 369.87 282.517 369.99 282.517H370.62L372.39 282.487C370.46 280.607 368.59 279.157 366.23 277.897C364.01 276.717 359.23 275.857 356.7 275.597L345.45 274.407C338.63 273.687 332.31 271.947 326.19 268.867C319.74 265.627 313.78 262.247 307.59 258.507C293.08 249.747 277.47 241.227 261.32 235.917L253.28 233.277L248.73 231.717C244.32 230.207 241.44 226.447 236.5 224.557C233.35 223.357 230.26 222.437 226.99 221.537C224.21 217.417 223.59 215.177 219.66 211.417C205.52 197.887 183.55 189.567 164.64 185.267C161.87 184.637 158.06 191.937 156.78 194.157L154.43 198.227C162.07 205.077 169.5 207.967 178.91 211.577C186.72 214.567 195.61 217.457 203.84 218.667C205.91 218.967 207.85 218.967 209.98 218.787C210.72 218.727 211.55 217.357 211.17 216.727C209.86 214.517 208.49 213.047 206.65 210.957C212.77 211.757 218.62 215.637 223.09 219.917L214.06 221.237L209.18 221.987C207.08 222.307 204.91 222.607 202.82 222.787L193.82 223.547C200.49 227.927 213.84 234.367 220.84 231.287C222.89 230.387 223.73 228.647 223.53 226.437C224.08 226.817 224.84 227.367 225.29 227.887C229.52 232.717 234.98 235.767 241.28 237.117L252.3 239.477C252.97 239.617 253.99 240.067 254.52 240.267L251.01 241.357C250.75 241.437 250.25 242.317 250.39 242.457L259.6 244.747C272.53 247.957 287.77 254.427 299.69 260.577V260.567ZM64.0801 221.737C69.2001 221.367 73.9801 220.657 78.7901 219.747L82.84 218.977C82.63 219.267 82.5 219.417 82.28 219.627C74.83 224.617 68.9201 225.777 59.7901 227.607C65.0201 229.367 70.21 230.357 75.65 230.967C83.5 231.857 92.6601 229.257 99.7001 225.697C100.18 225.457 100.84 224.717 101.21 224.217C98.2401 217.177 95.5401 211.327 88.1701 208.097C85.5001 206.927 82.7801 205.977 79.9501 205.317L76.53 204.527C74.26 203.997 71.9601 203.597 69.6401 203.367L64.6701 202.877L68.4 201.287C69.11 200.987 74.2701 198.637 73.3901 197.647C72.1801 196.287 64.3101 195.557 62.0401 195.447L59.2601 195.307C57.9101 195.237 56.5 195.177 55.18 195.257L52.47 195.417C39.92 196.147 25.7701 199.407 15.4801 206.837C13.0701 208.577 11.1001 210.817 9.90005 213.577C9.06005 215.527 9.52005 218.047 11.4001 219.217C15.4501 221.747 21.1501 220.877 25.6201 219.777C33.1901 217.907 40.6501 213.487 45.8301 207.537C43.4401 205.877 37.5301 206.957 34.2701 206.887C39.5501 203.307 49.56 202.947 56.75 204.747C51.24 209.077 46.08 215.167 42.41 221.027C42.18 221.387 41.9501 222.387 41.8001 223.057C42.7401 223.537 43.88 223.767 44.91 223.617L51.7601 222.677C55.8201 222.117 59.7901 222.057 64.1001 221.747L64.0801 221.737ZM188.91 231.307L178.73 224.527L169.07 218.237C166.84 216.777 164.82 215.557 162.42 214.177C163.22 216.637 170.96 222.487 173.2 224.077C179.96 228.877 187 233.157 194.8 235.537C192.81 233.767 190.96 232.687 188.9 231.307H188.91ZM168.64 229.047L165.74 227.247C163.78 226.037 161.71 225.137 159.6 224.177C155.84 222.457 152.29 220.717 148.24 219.327C150.74 225.317 159.85 227.317 165.21 228.727C166.37 229.027 167.27 229.097 168.64 229.047ZM69.22 245.857C70.03 245.657 70.5801 244.237 70.1401 243.457C69.3201 241.997 68.2701 240.627 66.8901 239.727C61.9601 236.527 54.02 235.047 48.13 234.087C42.97 233.247 34.8601 233.127 30.1401 235.697L34.94 237.167C39.02 238.417 43.24 241.907 47.78 243.727C53.8 246.137 62.7801 247.407 69.2101 245.847L69.22 245.857ZM78.19 283.377C78.6701 283.397 86.89 283.517 89.09 279.747C91.08 276.337 93.8501 273.677 96.44 270.707L100.3 266.287C100.52 266.037 100.82 265.237 100.68 265.007C99.93 263.777 96.37 263.697 94.72 264.027C92.11 264.547 89.63 265.907 87.75 267.767C86.1 269.397 85.2001 271.617 84.5501 273.817C83.0301 278.967 79.82 279.517 74.87 281.137L69.1701 283.007L78.18 283.357L78.19 283.377Z" fill="#112260"/>
</svg>
