<svg width="648" height="58" viewBox="0 0 648 58" fill="none" xmlns="http://www.w3.org/2000/svg">
<path id="Union" d="M490.881 0C504.891 0.0801418 516.691 7.22055 520.511 19.1904V22.7607H505.57C503.45 16.8208 498.101 13.421 490.801 13.4209C480.781 13.5009 474.16 19.2803 474.16 28.8701C474.16 38.4601 480.701 44.4102 490.551 44.4102C496.151 44.4101 500.741 42.5405 503.631 39.0605H494.711V27.2607H521.961V56.8105H508.37V50.4307C503.36 55.1805 496.48 57.8202 488.761 57.8203C471.861 57.8203 459.471 46.5301 459.471 28.8701C459.471 11.2103 472.801 0 490.881 0ZM336.19 1.7002C347.57 1.70021 356.06 7.56041 356.061 17.0703C356.061 21.6503 353.77 25.3904 350.12 28.1104V28.9609C354.36 31.7609 357.17 35.9207 357.17 40.9307C357.17 50.6905 348.6 56.8104 337.221 56.8105H305.301V1.62012L305.29 1.61035H336.19V1.7002ZM580.53 14.1807H549.54V21.8203H579V34.3906H549.54V44.2402H580.7V56.8105H535.11V1.61035H580.53V14.1807ZM24.96 1.61035C42.1098 1.61035 55.2703 11.8803 55.2705 29.1201C55.2705 46.3601 42.11 56.8008 24.96 56.8008H0V1.61035H24.96ZM121.82 53.6602V56.8008H106.881L103.23 47.8008H78.1006L74.4502 56.8008H59.9307V53.6602L82.0908 1.61035H99.2402L121.82 53.6602ZM149.5 40.1602H150.521L165.801 1.61035H180.32V4.75098L158.58 56.8008H141.431L119.271 4.75098H119.28V1.61035H134.221L149.5 40.1602ZM203.07 56.8008H188.641V1.61035H203.07V56.8008ZM242.721 1.61035C259.87 1.61047 273.03 11.8804 273.03 29.1201C273.03 46.36 259.871 56.8007 242.721 56.8008H217.761V1.61035H242.721ZM383.91 56.8008H369.48V1.61035H383.91V56.8008ZM430.011 1.61035C441.391 1.61052 449.79 8.23072 449.79 18.8506C449.79 26.5805 445.29 32.3506 438.5 34.8105V35.3203L452 53.6602V56.8008H436.12L422.87 37.7002H413.021V56.8008H398.591V1.61035H430.011ZM625.7 1.61035C637.08 1.61035 645.48 8.23059 645.48 18.8506C645.48 26.5805 640.98 32.3506 634.19 34.8105V35.3203L647.69 53.6602V56.8008H631.811L618.561 37.7002H608.71V56.8008H594.28V1.61035H625.7ZM14.4307 44.2402H24.96C33.9598 44.2402 40.5799 38.8106 40.5801 29.1309C40.5801 19.4509 33.96 14.1904 24.96 14.1904H14.4307V44.2402ZM232.2 44.2402H242.73C251.73 44.2402 258.35 38.8106 258.351 29.1309C258.351 19.4509 251.73 14.1905 242.73 14.1904H232.2V44.2402ZM319.73 44.2305H337.221C340.45 44.2304 342.57 42.5304 342.57 39.6406C342.57 36.7507 340.451 35.2208 337.221 35.2207H319.73V44.2305ZM83.2002 35.2305H98.1406L91.2607 18.251H89.9902L83.2002 35.2305ZM413.03 24.29H430.011C433.241 24.2899 435.36 22.59 435.36 19.6201C435.36 16.6505 433.24 15.0304 430.011 15.0303H413.03V24.29ZM608.721 24.29H625.7C628.93 24.29 631.051 22.5901 631.051 19.6201C631.051 16.6504 628.93 15.0303 625.7 15.0303H608.721V24.29ZM319.73 22.6709H336.2C339.43 22.6709 341.551 21.0606 341.551 18.3408C341.551 15.6208 339.43 14.1807 336.2 14.1807H319.73V22.6709Z" fill="#112260"/>
</svg>
