<svg width="389" height="300" viewBox="0 0 389 300" fill="none" xmlns="http://www.w3.org/2000/svg">
<path d="M118.895 134.05L113.415 133.75C111.935 138.44 112.625 143.33 115.335 147.18C117.015 149.56 119.645 150.98 122.365 150.98C123.785 150.98 125.165 150.61 126.455 149.88C128.105 148.95 129.505 147.65 130.915 146.29L129.155 141.43L124.935 141.12C121.065 140.83 119.515 137.11 118.905 134.05H118.895Z" fill="black"/>
<path d="M386.486 297.65C386.386 297.74 386.286 297.84 386.166 297.94C385.916 298.16 385.696 298.31 385.526 298.42C384.956 298.78 384.346 299.01 383.706 299.14C383.526 299.17 383.326 299.2 383.106 299.22C381.206 299.33 379.376 299.39 377.436 299.39C375.356 299.39 373.186 299.33 370.826 299.19C369.976 299.15 369.096 299.03 368.216 298.85C367.656 298.73 366.846 298.58 365.866 298.39C365.496 298.32 365.046 298.24 364.566 298.15C364.416 298.12 362.716 297.83 362.366 297.76L361.456 297.61C360.996 297.54 360.536 297.46 360.046 297.39L358.496 297.15C357.536 297.01 356.526 296.87 355.486 296.74L355.336 296.72C355.226 296.7 355.116 296.68 354.996 296.67C349.546 295.98 344.696 295.64 340.556 295.64C339.286 295.64 338.066 295.67 336.926 295.73C336.766 295.74 336.616 295.75 336.466 295.75C335.586 295.75 334.716 295.6 333.886 295.31C333.536 295.19 333.206 295.05 332.856 294.88C332.686 294.8 332.496 294.7 332.316 294.6C331.966 294.39 331.676 294.19 331.386 293.99C331.186 293.84 331.006 293.71 330.856 293.58C330.506 293.31 330.116 292.95 329.726 292.59C328.996 291.88 328.336 291.15 327.696 290.45C327.186 289.88 326.666 289.31 326.126 288.77C325.576 288.23 325.146 287.85 324.736 287.56C324.466 287.36 324.206 287.2 323.976 287.09C321.466 285.82 319.126 284.78 316.816 283.92C315.876 283.57 314.906 283.23 313.916 282.92C313.416 282.77 312.916 282.62 312.426 282.48C311.086 282.11 309.766 281.79 308.396 281.51L300.816 279.98L284.076 276.96C282.856 276.74 281.666 276.49 280.476 276.23C279.336 275.98 278.206 275.74 277.076 275.54C276.766 275.48 276.456 275.42 276.156 275.38C275.776 275.32 275.416 275.27 275.056 275.23C274.686 275.19 274.296 275.14 273.896 275.11C266.846 274.59 261.416 272.89 256.756 269.76L246.276 262.71C244.836 261.74 243.126 260.67 241.216 260.05C240.626 259.86 240.036 259.72 239.446 259.62C235.166 258.88 231.286 257.88 227.586 256.56C226.266 256.09 224.976 255.58 223.746 255.04C222.806 254.63 221.926 254.29 221.076 253.99C218.446 253.09 215.826 252.53 212.836 252.25C210.576 252.04 208.276 251.79 206.006 251.52C202.906 251.16 199.596 250.71 195.886 250.16C192.756 249.69 189.456 249.14 185.816 248.48C183.006 247.98 180.076 247.42 176.856 246.77C174.816 246.36 172.766 245.89 170.756 245.4C168.966 244.96 167.076 244.45 164.816 243.81C163.516 243.45 162.216 243.05 160.896 242.64C159.596 242.23 158.306 241.82 157.006 241.38L156.856 241.33C155.946 241.03 155.036 240.72 154.126 240.4C152.106 239.7 150.216 239.02 148.356 238.33C147.586 238.05 146.806 237.76 146.026 237.46L131.366 231.89C131.276 231.86 131.186 231.82 131.086 231.8C130.686 231.69 130.296 231.64 129.906 231.64C129.626 231.64 129.356 231.66 129.106 231.72C128.816 231.77 128.546 231.86 128.306 231.97L119.866 236.07C118.996 236.5 118.126 236.9 117.246 237.29C115.916 237.88 114.576 238.45 113.276 238.96C109.906 240.3 106.426 241.48 102.646 242.56C102.176 242.7 101.666 242.84 101.156 242.98C100.476 243.17 99.8355 243.34 99.1855 243.51C102.476 244.84 105.666 246.28 108.856 248L111.316 249.33L111.656 249.55L111.946 249.76C112.796 250.4 113.686 251.06 114.536 251.76H114.556C115.076 252.21 115.566 252.65 116.006 253.1C116.246 253.33 116.476 253.58 116.696 253.83C116.936 254.08 117.156 254.36 117.376 254.64V254.67H117.396C118.876 256.6 119.666 258.87 119.666 261.25C119.666 261.85 119.616 262.44 119.516 262.98C119.426 263.52 119.296 264.07 119.126 264.61C118.956 265.13 118.726 265.69 118.446 266.23C118.196 266.72 117.906 267.2 117.556 267.7C117.416 267.9 117.246 268.12 117.076 268.34C116.856 268.63 116.626 268.91 116.396 269.18C116.156 269.45 115.896 269.74 115.636 270.02C115.326 270.34 115.086 270.58 114.836 270.82C114.626 271.03 114.356 271.29 114.076 271.53C113.666 271.91 113.166 272.33 112.586 272.78C112.346 272.98 112.086 273.18 111.826 273.38C110.586 274.31 109.546 275.1 108.626 275.82L107.576 276.65C103.626 279.83 102.316 281.44 97.4555 287.41C97.0355 287.92 96.5455 288.45 95.9755 289C95.4255 289.52 94.8555 289.98 94.2555 290.41C93.6255 290.86 92.9655 291.25 92.2855 291.58C91.7955 291.82 91.3255 292.01 90.8555 292.17C90.4655 292.31 90.0855 292.42 89.6955 292.51C89.5355 292.55 89.3655 292.59 89.2055 292.62L88.9955 292.66C88.7255 292.71 88.4355 292.76 88.1255 292.79C88.0055 292.81 87.8955 292.81 87.8155 292.82C87.4955 292.85 87.1655 292.86 86.8455 292.86L69.7155 292.79C68.3855 292.79 65.7455 292.23 64.3755 290.72C62.0055 288.13 63.0155 284.08 65.3755 281.66C65.6655 281.36 65.9655 281.1 66.2955 280.85C66.6155 280.61 66.9755 280.38 67.3755 280.17C67.8355 279.94 68.2455 279.78 68.6455 279.67L74.6455 277.98C75.1555 277.83 75.6455 277.61 76.1155 277.31C76.1955 277.26 76.2555 277.22 76.3155 277.18L76.4755 277.07C76.6055 276.98 76.7555 276.86 76.9055 276.72L77.1055 276.56L77.1855 276.47C77.8155 275.86 78.3255 275.16 78.6855 274.41L83.1655 265.26C82.9555 265.16 82.6455 265.03 82.2755 264.89C82.1655 264.85 82.0655 264.82 81.9655 264.78L81.7355 264.71C81.5255 264.64 81.3155 264.58 81.0955 264.52C80.7655 264.42 80.4355 264.33 80.0955 264.26C79.4555 264.1 78.8155 263.97 78.1655 263.85L77.3355 263.71C77.2055 263.69 77.0455 263.66 76.8855 263.63C76.6655 263.59 76.4555 263.57 76.2455 263.54L76.1455 263.52C75.5855 263.44 75.0155 263.37 74.4755 263.3C74.2055 263.26 73.9655 263.24 73.7355 263.21L73.2655 263.16L72.7755 263.1C72.2655 263.05 71.7655 263 71.2955 262.96C70.8155 262.91 70.3655 262.87 69.9455 262.84C69.7555 262.83 69.0555 262.77 68.9355 262.76L67.3155 262.64C67.0855 262.64 66.8955 262.62 66.7555 262.61L59.1855 261.95C57.8655 261.83 56.6155 261.65 55.5755 261.48L52.1055 260.89C47.7055 260.13 43.3155 259.12 39.0655 257.88C37.7955 257.51 36.4955 257.11 35.2155 256.69C33.8455 256.24 32.5955 255.82 31.4255 255.39C24.8455 253 19.6855 250.92 14.6955 248.63C14.4955 248.54 14.2555 248.43 14.0155 248.31L13.8255 248.22C13.5955 248.11 13.3755 247.99 13.1455 247.87L12.9555 247.77C12.3555 247.46 11.7955 247.14 11.2355 246.81C10.6555 246.46 10.0955 246.11 9.55554 245.73C9.00554 245.36 8.48553 244.97 7.97553 244.57C7.32553 244.07 6.66553 243.51 5.98553 242.87C-0.724471 236.54 -1.07446 225.82 1.43554 218.53C2.66554 214.95 4.84554 211.56 7.91554 208.44C8.21554 208.12 8.54553 207.8 8.87553 207.48C9.50553 206.9 10.1655 206.32 10.8955 205.71C13.5155 203.56 16.5855 201.57 20.0355 199.8C20.8355 199.38 21.6455 198.98 22.4655 198.6C23.2555 198.23 24.0655 197.87 24.8755 197.52C25.7055 197.19 26.4955 196.87 27.2855 196.56C27.6055 196.44 27.9155 196.33 28.2155 196.22L28.4955 196.11C29.6155 195.72 30.7655 195.33 32.0355 194.93L32.2755 194.86C32.9755 194.65 33.6655 194.44 34.3555 194.26C35.4755 193.96 36.5955 193.67 37.6855 193.42C38.7755 193.16 39.8255 192.92 40.8755 192.71C42.3055 192.42 43.7555 192.16 45.1955 191.95C46.1255 191.81 47.0655 191.68 47.9855 191.58C50.1955 191.32 52.4155 191.15 54.7655 191.06C56.0455 191.01 57.3555 190.99 58.7555 190.99C59.8555 190.99 60.9655 191 62.1055 191.03L64.3055 191.09C65.4555 191.13 66.5955 191.18 67.7855 191.24L70.9955 191.42L79.2155 191.9C79.4755 188.39 77.5155 181.82 75.4155 176.84L72.6955 170.36L70.5955 165.4C69.3455 162.44 68.0955 159.48 66.8555 156.53L66.4455 155.53C65.3155 152.79 64.1755 150.04 63.0655 147.27V147.25C62.5855 146.09 62.1255 144.93 61.6755 143.76C60.0755 139.69 58.7955 136.3 57.6655 133.13C55.6155 127.4 54.0055 121.63 52.7255 115.51C52.5455 114.67 52.3755 113.79 52.2155 112.92C52.0055 111.87 51.8355 110.73 51.6855 109.46C51.5955 108.71 51.5255 107.99 51.4555 107.26C51.3855 106.46 51.3255 105.73 51.2755 104.99V104.92C51.2455 104.57 51.2155 104.22 51.1955 103.88L51.1355 102.73C51.1155 102.46 51.1155 102.18 51.1055 101.91V101.6C51.0855 100.95 51.0855 100.36 51.1055 99.8L51.1455 98.84C51.1655 98.27 51.2055 97.74 51.2555 97.25C51.2755 96.99 51.2955 96.7 51.3355 96.42C51.4255 95.62 51.5555 94.8 51.7155 93.96C51.7355 93.83 51.7555 93.72 51.7755 93.63C51.7755 93.63 51.9255 92.91 51.9555 92.72C51.9555 92.72 52.1355 91.93 52.1755 91.77C52.2055 91.63 52.4255 90.64 52.4255 90.64C52.4755 90.42 52.5155 90.2 52.5655 89.98C52.6155 89.72 52.6555 89.46 52.6855 89.22C52.8355 88.09 52.7855 87.21 52.5255 86.17C51.5555 82.25 51.4255 78.33 52.1355 74.51C52.3555 73.35 52.6255 72.29 52.9455 71.28C53.0155 71.05 53.1055 70.79 53.1955 70.54C53.2255 70.41 53.2755 70.27 53.3255 70.14V70.12C56.0055 62.77 62.1655 57.42 69.8255 55.79C70.2955 55.7 70.7255 55.61 71.1655 55.55C71.7255 55.46 72.3055 55.39 72.9555 55.34C73.4755 55.3 74.0155 55.28 74.5655 55.25C75.0455 55.23 75.5155 55.21 75.9955 55.18C76.4055 55.14 76.8255 55.11 77.2355 55.05L77.3555 55.03C77.5055 55.01 77.6355 54.98 77.7855 54.95C77.9555 54.91 78.0955 54.88 78.2355 54.83L78.7255 54.67C79.2155 54.5 79.7055 54.34 80.1955 54.17C82.3155 53.48 84.3555 52.83 86.5355 52.36C86.7055 52.32 86.9355 52.27 87.1555 52.23C88.2155 52.04 89.1255 51.9 89.9955 51.81C92.1655 51.6 94.2355 50.98 96.7155 49.81L97.0455 49.65C97.2155 49.56 97.3655 49.49 97.5255 49.41C97.7255 49.29 97.8755 49.2 97.9855 49.13C98.0055 49.03 98.0255 48.93 98.0455 48.83C98.1355 48.35 98.2055 47.76 98.2355 47.16C98.2655 46.55 98.2655 45.93 98.2355 45.31C98.2255 45.11 98.2155 44.93 98.2055 44.76L98.1855 44.49L98.1655 44.29C98.1555 44.09 98.1355 43.89 98.1055 43.68V43.55C98.0655 43.24 98.0355 42.95 97.9955 42.68C97.9355 42.25 97.8855 41.9 97.8255 41.55C97.5255 39.74 97.1155 38.02 96.8355 36.88C95.1355 30.04 95.4555 23.29 97.7855 16.81C100.426 9.51 106.106 3.56999 112.596 1.28999C113.126 1.11999 113.596 0.969996 114.066 0.839996L114.856 0.660004C115.286 0.570004 115.656 0.499993 116.036 0.429993C116.336 0.379993 116.666 0.329999 116.976 0.279999L117.126 0.259995C117.866 0.159995 118.636 0.0899933 119.456 0.0399933C119.986 0.0199933 120.506 0 121.036 0C123.556 0 126.096 0.330001 128.586 0.970001C129.336 1.16 130.106 1.35999 130.856 1.56999C132.366 1.98999 133.846 2.4 135.316 2.84C136.786 3.27 138.256 3.71 139.716 4.17C141.896 4.85 144.086 5.53999 146.276 6.23999C146.456 6.28999 146.676 6.37999 146.896 6.45999L147.006 6.5C147.406 6.67 147.786 6.86 148.146 7.06H148.186C148.756 7.4 149.306 7.79999 149.816 8.25999C151.566 9.87999 152.496 12.05 152.516 14.55C152.556 16.57 152.196 18.35 151.416 19.99C151.356 20.12 151.116 20.6 151.116 20.6C150.796 21.17 150.476 21.67 150.226 22.03L149.966 22.43C149.826 22.62 149.686 22.82 149.616 22.95L149.476 23.19L150.346 28.64C150.496 29.55 150.606 30.43 150.686 31.32V31.35C150.856 33.21 150.826 34.79 150.606 36.19C150.486 36.89 150.336 37.52 150.136 38.16C150.016 38.51 149.916 38.79 149.806 39.07L149.756 39.17V39.21L149.726 39.25L149.616 39.54C149.296 40.34 149.186 40.61 149.686 42.06L151.166 46.31C151.616 47.62 151.376 49.76 150.646 50.9L150.336 51.28H150.346C149.696 52.04 148.856 52.55 147.776 52.85C147.666 52.88 147.536 52.91 147.396 52.94C147.316 52.96 147.226 52.98 147.136 53L147.086 54.43C147.086 54.43 147.046 55.17 147.036 55.33C147.036 55.33 146.976 55.85 146.966 55.96C146.946 56.1 146.916 56.22 146.896 56.34L146.846 56.61C146.586 57.71 146.116 58.46 145.476 59.26C152.146 60.71 157.376 62.62 162.586 65.47C163.586 66.01 164.586 66.59 165.666 67.25L167.206 68.23C167.206 68.23 168.486 69.09 168.786 69.3L174.676 73.31C175.126 73.63 175.546 73.93 175.916 74.21L176.296 74.52C176.806 74.92 177.246 75.29 177.626 75.65C177.706 75.72 177.826 75.83 177.936 75.95L178.176 76.19C178.296 76.3 178.386 76.39 178.476 76.48C179.096 77.13 179.606 77.73 180.096 78.31C180.526 78.82 180.936 79.3 181.396 79.78C181.496 79.88 181.546 79.93 181.596 79.98L181.686 80.07C181.826 80.21 181.976 80.35 182.126 80.48L182.236 80.59C182.366 80.71 182.496 80.82 182.646 80.94L182.916 81.17C183.466 81.64 183.966 82.09 184.436 82.52C184.616 82.69 184.756 82.82 184.896 82.94C185.446 83.45 185.986 83.93 186.386 84.18C186.546 84.29 186.626 84.33 186.676 84.35C188.246 84.45 190.286 84.58 192.296 84.77C193.226 84.85 194.156 84.96 195.086 85.07C197.616 85.39 199.876 85.82 202.006 86.39H202.026C202.316 86.47 202.616 86.55 202.906 86.64C203.686 86.87 204.436 87.11 205.196 87.38L206.136 87.72C206.686 87.94 207.146 88.13 207.616 88.32C208.036 88.51 208.396 88.68 208.756 88.85L209.056 88.99C209.946 89.4 210.846 89.87 211.756 90.39L212.606 90.89H212.626C213.736 91.55 214.826 92.24 215.886 92.94C216.366 93.25 217.966 94.33 217.966 94.33C218.406 94.62 218.836 94.85 219.266 95.02C219.346 95.05 219.416 95.08 219.496 95.1L219.666 95.15C219.786 95.19 219.916 95.22 220.036 95.26L220.256 95.3C220.316 95.31 220.386 95.32 220.446 95.33L220.546 95.35L220.936 95.38C221.166 95.4 221.356 95.41 221.546 95.41C221.766 95.41 221.996 95.4 222.226 95.37L227.786 94.88C232.656 94.45 236.656 94.25 240.396 94.25C246.956 94.25 252.826 94.87 258.856 96.21C264.666 97.49 269.956 98.6 275.826 99.12C276.716 99.2 277.616 99.27 278.546 99.33C279.036 99.36 279.486 99.38 279.936 99.4H280.156C280.416 99.41 280.526 99.38 280.526 99.38L280.676 99.33C280.676 99.33 280.756 99.26 280.796 99.23C280.996 99.03 281.246 98.66 281.536 98.24C282.066 97.47 282.716 96.51 283.746 95.51C283.996 95.27 284.226 95.06 284.476 94.85C284.916 94.48 285.366 94.14 285.846 93.83L288.156 92.31C288.666 91.96 289.226 91.72 289.706 91.52C289.876 91.45 290.076 91.38 290.266 91.31C290.266 91.31 290.946 91.03 291.096 90.96C291.106 90.96 291.116 90.95 291.126 90.95L292.976 83.08L293.256 82.6L293.156 82.56C293.406 82 293.786 81.45 294.276 80.92C294.336 80.85 294.456 80.73 294.576 80.61C294.806 80.39 294.996 80.23 295.176 80.09C295.336 79.96 295.546 79.8 295.756 79.68C295.976 79.54 296.156 79.44 296.336 79.37L296.446 79.32C296.636 79.22 296.826 79.15 297.026 79.1H297.066L297.426 79L297.686 78.96C297.966 78.92 298.236 78.91 298.516 78.91C298.696 78.91 298.896 78.91 299.086 78.93V78.96L299.186 78.99V78.94C299.546 78.97 299.906 79.02 300.276 79.1L300.576 79.19C300.766 79.25 300.876 79.28 300.986 79.32H301.006C301.526 79.52 302.006 79.81 302.396 80.16L302.496 80.25C302.636 80.4 302.736 80.51 302.846 80.66C303.216 81.16 303.496 81.65 303.756 82.21C304.356 83.52 304.616 84.87 304.896 86.29C305.206 87.91 305.556 89.72 306.496 92.03L306.556 92C306.646 91.95 306.736 91.91 306.826 91.85L306.916 91.8C307.036 91.73 307.156 91.66 307.266 91.58L307.396 91.5C307.396 91.5 307.476 91.45 307.516 91.42L307.686 91.29C308.046 91.06 308.386 90.8 308.726 90.54C308.906 90.4 309.076 90.26 309.246 90.11C310.036 89.47 310.666 88.9 311.136 88.49L311.396 88.25C313.736 86.18 315.916 85.14 317.886 85.14C319.386 85.14 320.746 85.76 321.726 86.88C322.056 87.26 322.256 87.67 322.406 88C322.696 88.71 322.796 89.36 322.836 89.79C322.896 90.41 322.846 91 322.686 91.52L323.006 91.46C323.596 91.35 324.106 91.27 324.606 91.19L325.356 91.08C325.906 91.02 326.436 90.96 326.946 90.92C327.476 90.88 327.956 90.87 328.426 90.87C329.956 90.87 331.446 91.04 332.976 91.41C333.466 91.52 333.956 91.71 334.436 91.99L334.416 92.02L334.576 92.06C334.996 92.33 335.346 92.61 335.656 92.92C337.426 94.71 337.946 97.35 336.916 99.35C336.776 99.64 336.586 99.91 336.366 100.15C336.096 100.46 335.766 100.73 335.386 100.96C335.186 101.1 334.966 101.23 334.736 101.33C334.536 101.44 334.316 101.54 334.126 101.62L333.986 101.68C333.726 101.77 333.496 101.85 333.316 101.9C332.446 102.14 331.586 102.39 330.726 102.65C328.316 103.42 325.916 104.37 323.406 105.53L319.736 107.22L311.176 111.19C310.286 111.61 309.226 112.06 307.946 112.56L307.086 112.88C306.266 113.2 305.426 113.49 304.646 113.75L291.466 118.16C291.026 118.31 290.576 118.49 290.106 118.66C289.396 118.93 288.676 119.2 287.956 119.43C287.586 119.56 287.196 119.67 286.806 119.76C286.426 119.86 286.086 119.93 285.726 120.01L285.596 120.04C285.276 120.1 284.966 120.17 284.636 120.23C282.186 120.7 279.576 121 277.046 121.3C274.726 121.57 272.326 121.85 269.996 122.27L254.116 125.1C252.156 125.45 250.136 125.76 248.116 126.04H248.096C245.096 126.45 242.066 126.76 239.086 126.96C236.056 127.17 232.996 127.28 229.996 127.28C226.376 127.28 222.726 127.13 219.146 126.82L218.506 126.76C218.066 126.72 217.626 126.68 217.206 126.63C216.876 126.6 216.506 126.55 216.146 126.49C215.886 126.46 215.556 126.4 215.236 126.35L206.866 124.73C206.256 124.61 205.646 124.52 204.976 124.46C204.366 124.4 203.726 124.37 203.076 124.37C202.266 124.37 201.426 124.42 200.576 124.5C199.856 124.58 199.126 124.68 198.336 124.82L192.226 125.91L191.286 126.06C190.846 126.13 190.426 126.2 190.006 126.26C190.006 126.26 189.666 126.3 189.566 126.31C188.326 126.47 187.146 126.54 185.926 126.54C185.516 126.54 185.106 126.54 184.676 126.52C184.406 126.52 184.126 126.49 183.826 126.47L183.416 126.44C182.336 126.36 181.356 126.27 180.426 126.16C180.156 126.13 179.836 126.09 179.506 126.04C178.946 125.97 178.346 125.88 177.756 125.78C174.996 125.31 172.586 124.52 170.136 123.28C169.876 123.8 169.596 124.32 169.316 124.84C168.506 126.3 167.616 127.74 166.656 129.15C165.516 130.8 164.276 132.42 162.856 134.09H162.836L162.826 134.12C162.296 134.74 161.746 135.36 161.186 135.97C160.616 136.59 160.036 137.2 159.446 137.8C154.276 143.07 152.246 146.12 150.386 153.79C149.126 159.03 149.216 165.91 151.566 167.91L156.786 172.35C157.396 172.87 158.006 173.4 158.616 173.94L159.116 174.39C159.876 175.07 160.626 175.73 161.366 176.37C161.856 176.78 162.336 177.19 162.846 177.59C163.686 178.25 164.476 178.82 165.266 179.33C165.266 179.33 165.726 179.61 165.876 179.7C166.086 179.82 166.296 179.95 166.516 180.06C166.906 180.27 167.356 180.47 167.856 180.66L168.386 180.85C168.646 180.95 168.846 181.01 169.046 181.07C169.596 181.24 170.086 181.37 170.576 181.5L170.636 181.51C171.156 181.66 171.686 181.79 172.206 181.93H172.256C173.586 182.3 174.896 182.67 176.206 183.04L176.426 183.1C176.686 183.18 176.926 183.25 177.176 183.31L178.426 183.68C179.466 183.99 180.506 184.29 181.526 184.6C183.596 185.24 185.636 185.9 187.586 186.55C189.616 187.24 191.626 187.95 193.556 188.68C195.366 189.36 197.296 190.14 199.436 191.04C200.416 191.47 201.386 191.9 202.346 192.34C202.836 192.56 203.306 192.78 203.786 193.01L204.326 193.27C205.106 193.64 205.886 194.02 206.666 194.42C207.616 194.89 208.556 195.39 209.496 195.89C213.056 197.82 216.246 199.77 219.286 201.86C221.796 203.58 223.986 205.28 225.966 207.05C226.516 207.54 227.036 208.01 227.536 208.51C229.056 209.97 230.526 211.56 231.876 213.24C232.646 214.19 233.296 214.99 233.876 215.66C234.086 215.91 234.296 216.14 234.496 216.36L234.956 216.85L235.046 216.94C235.236 217.12 235.416 217.29 235.586 217.45L235.716 217.57C235.786 217.63 235.856 217.69 235.916 217.74C236.286 218.05 236.606 218.27 236.986 218.49C237.746 218.93 238.646 219.33 239.956 219.86H239.976C240.186 219.95 241.046 220.31 241.046 220.31L242.466 220.87C242.826 221.02 243.206 221.17 243.606 221.34C245.206 222 246.616 222.67 248.056 223.44L249.576 224.32C249.816 224.46 250.056 224.6 250.286 224.74C250.796 225.05 251.226 225.31 251.696 225.56L251.826 225.63C251.926 225.69 252.046 225.75 252.156 225.81L252.426 225.95C252.816 226.16 253.286 226.38 253.806 226.61L254.156 226.76C254.496 226.91 254.776 227.02 255.076 227.14L255.216 227.19C255.296 227.22 255.376 227.25 255.466 227.28L255.656 227.35C255.926 227.46 256.226 227.56 256.536 227.67L275.516 234.12C277.436 234.78 279.146 235.41 280.756 236.05C281.896 236.52 283.036 236.99 284.146 237.48C289.766 239.95 295.576 243.06 301.926 246.97L317.696 256.7C318.586 257.25 319.466 257.8 320.336 258.35C322.606 259.76 324.746 261.1 326.956 262.39C327.496 262.7 327.976 262.98 328.466 263.25C330.086 264.16 331.596 264.94 333.066 265.63C334.146 266.14 335.186 266.59 336.176 266.97C337.246 267.39 338.316 267.77 339.376 268.09C340.526 268.45 341.596 268.73 342.666 268.95C345.056 269.46 347.436 269.75 350.286 270.04L353.506 270.38L364.346 271.63C364.626 271.66 364.896 271.7 365.156 271.74C365.436 271.78 365.726 271.82 365.996 271.88C366.516 271.97 367.026 272.09 367.516 272.21L368.236 272.41C368.686 272.54 369.036 272.65 369.386 272.78C370.166 273.06 370.856 273.34 371.486 273.63C371.816 273.78 372.126 273.94 372.436 274.1L372.526 274.15C373.156 274.48 373.766 274.84 374.396 275.24C375.576 276.01 376.706 276.88 377.866 277.92C378.216 278.22 378.576 278.56 378.926 278.9C380.436 280.36 381.976 282.09 383.786 284.36C385.656 286.7 386.996 289.18 387.856 291.93C388.496 293.91 387.956 296.16 386.486 297.65Z" fill="white"/>
<path d="M385.166 292.79C384.386 290.31 383.176 288.13 381.576 286.13C380.086 284.26 378.576 282.5 376.966 280.95C376.646 280.64 376.326 280.33 375.996 280.04C375.006 279.16 373.976 278.35 372.886 277.64C372.336 277.29 371.776 276.96 371.196 276.65C370.906 276.5 370.616 276.35 370.316 276.21C369.726 275.94 369.106 275.69 368.476 275.46C368.156 275.35 367.836 275.25 367.506 275.15C367.286 275.09 367.066 275.03 366.836 274.97C366.396 274.86 365.936 274.75 365.466 274.67C365.236 274.62 364.996 274.58 364.756 274.55C364.516 274.51 364.276 274.48 364.026 274.45L354.786 273.38C354.256 273.32 353.726 273.26 353.196 273.2C352.126 273.09 351.076 272.98 350.016 272.87C347.376 272.6 344.746 272.29 342.116 271.73C340.906 271.48 339.736 271.17 338.576 270.81C337.426 270.46 336.286 270.06 335.176 269.62C334.066 269.19 332.966 268.71 331.886 268.2C330.266 267.44 328.676 266.61 327.106 265.73C326.586 265.44 326.066 265.14 325.546 264.84C322.426 263.02 319.366 261.06 316.226 259.12L300.456 249.39C294.766 245.88 289.046 242.73 283.026 240.08C281.936 239.6 280.826 239.14 279.716 238.69C278.046 238.02 276.346 237.4 274.626 236.81L255.756 230.4C255.356 230.26 254.976 230.13 254.626 229.99C254.436 229.93 254.266 229.86 254.086 229.79C253.746 229.66 253.426 229.53 253.126 229.4C252.976 229.34 252.826 229.27 252.676 229.21C252.096 228.95 251.576 228.7 251.096 228.45C250.856 228.32 250.616 228.2 250.396 228.07C249.866 227.79 249.386 227.5 248.896 227.2C248.636 227.05 248.376 226.9 248.116 226.74C248.006 226.68 247.886 226.61 247.776 226.54C247.436 226.35 247.096 226.15 246.726 225.94C245.616 225.34 244.306 224.69 242.536 223.96C242.056 223.76 241.606 223.58 241.186 223.41C240.766 223.24 240.376 223.09 240.006 222.94C239.636 222.79 239.286 222.64 238.956 222.51C237.556 221.94 236.516 221.49 235.616 220.96C235.106 220.67 234.636 220.35 234.176 219.96C234.026 219.84 233.876 219.7 233.716 219.56C233.506 219.37 233.296 219.17 233.076 218.95C232.976 218.86 232.866 218.74 232.756 218.63C232.656 218.52 232.546 218.4 232.436 218.28C232.216 218.04 231.986 217.79 231.746 217.51C231.156 216.82 230.486 216 229.696 215.02C228.406 213.42 227.036 211.93 225.586 210.54C225.106 210.07 224.616 209.62 224.116 209.17C222.116 207.39 219.986 205.76 217.716 204.2C214.596 202.06 211.416 200.15 208.196 198.4C207.276 197.91 206.346 197.42 205.416 196.95C204.486 196.48 203.546 196.03 202.616 195.58C202.146 195.36 201.676 195.14 201.196 194.92C200.256 194.49 199.306 194.07 198.356 193.66C196.446 192.85 194.526 192.07 192.586 191.34C190.646 190.61 188.686 189.91 186.716 189.24C184.736 188.58 182.736 187.94 180.726 187.32C179.326 186.89 177.906 186.48 176.486 186.06C176.146 185.97 175.806 185.87 175.456 185.77C174.156 185.4 172.856 185.04 171.536 184.68H171.526C170.986 184.54 170.446 184.4 169.906 184.25H169.896C169.356 184.11 168.806 183.96 168.276 183.79C168.006 183.71 167.736 183.63 167.476 183.53C167.276 183.46 167.086 183.39 166.886 183.32C166.306 183.1 165.736 182.85 165.196 182.56C164.956 182.43 164.716 182.29 164.476 182.15C164.236 182.01 163.996 181.86 163.766 181.72C162.846 181.13 161.966 180.49 161.116 179.82C160.586 179.4 160.076 178.97 159.556 178.53C158.796 177.88 158.036 177.2 157.276 176.52C156.516 175.85 155.756 175.17 154.976 174.51L149.766 170.08C145.796 166.71 146.556 157.72 147.666 153.13C149.616 145.07 151.866 141.52 157.456 135.82C158.026 135.24 158.576 134.66 159.126 134.06C159.666 133.47 160.196 132.87 160.716 132.27C160.716 132.27 160.719 132.267 160.726 132.26C162.016 130.74 163.226 129.18 164.346 127.55C165.236 126.25 166.076 124.9 166.856 123.49C167.236 122.79 167.606 122.08 167.956 121.35C168.136 120.98 168.306 120.61 168.476 120.24H168.486C168.506 120.18 168.546 120.12 168.596 120.05C168.596 120.05 168.599 120.047 168.606 120.04C168.656 119.96 168.716 119.89 168.786 119.82C168.926 119.67 169.086 119.54 169.206 119.54C169.226 119.54 169.246 119.55 169.266 119.56L170.206 120.09C173.076 121.72 175.516 122.52 178.246 122.99C178.796 123.08 179.356 123.17 179.926 123.24C180.216 123.28 180.506 123.32 180.806 123.35C181.696 123.46 182.636 123.54 183.646 123.62C183.786 123.62 183.936 123.64 184.076 123.65C184.336 123.67 184.586 123.68 184.836 123.69C186.416 123.76 187.836 123.69 189.336 123.49C189.446 123.48 189.556 123.46 189.666 123.45C190.126 123.39 190.596 123.31 191.086 123.23C191.316 123.19 191.526 123.16 191.766 123.12L197.856 122.04C198.676 121.89 199.496 121.77 200.316 121.69C201.966 121.52 203.626 121.49 205.276 121.64C205.996 121.71 206.716 121.81 207.436 121.95L215.766 123.56C216.046 123.61 216.336 123.66 216.636 123.7C216.936 123.75 217.246 123.79 217.556 123.82C218.166 123.89 218.796 123.94 219.416 124C225.966 124.56 232.456 124.59 238.926 124.14C241.876 123.94 244.806 123.64 247.746 123.24H247.756C249.716 122.97 251.686 122.66 253.646 122.31L269.526 119.48C274.516 118.59 279.536 118.33 284.176 117.44C284.516 117.38 284.836 117.31 285.166 117.24C285.496 117.17 285.816 117.1 286.146 117.02C286.466 116.94 286.786 116.85 287.096 116.74C288.276 116.37 289.456 115.87 290.596 115.48L293.906 114.37L303.776 111.07C304.526 110.82 305.326 110.54 306.136 110.23C306.406 110.13 306.676 110.02 306.946 109.92C308.026 109.5 309.086 109.06 310.016 108.62L318.576 104.65L322.246 102.96C324.796 101.78 327.296 100.79 329.926 99.95C330.806 99.68 331.696 99.42 332.606 99.17C332.716 99.14 332.856 99.09 333.016 99.03C333.176 98.96 333.356 98.88 333.516 98.79C333.636 98.74 333.766 98.67 333.876 98.59C334.046 98.49 334.196 98.37 334.296 98.25C334.356 98.19 334.396 98.13 334.426 98.07C334.896 97.15 334.546 95.8 333.686 94.93C333.506 94.75 333.306 94.6 333.086 94.46H333.076C332.846 94.33 332.606 94.23 332.346 94.17C330.496 93.73 328.866 93.64 327.216 93.75C326.736 93.79 326.246 93.84 325.756 93.9C325.526 93.93 325.286 93.97 325.056 94C324.586 94.07 324.106 94.15 323.616 94.24C323.376 94.29 323.126 94.33 322.876 94.38C322.586 94.44 322.296 94.49 321.996 94.55L317.186 95.47C317.246 95.33 317.296 95.21 317.346 95.09C317.546 94.61 317.706 94.27 317.896 93.94C318.036 93.69 318.196 93.45 318.396 93.15L319.926 90.86C320.046 90.69 320.076 90.38 320.046 90.06C320.016 89.74 319.946 89.41 319.836 89.14C319.766 88.98 319.696 88.84 319.616 88.75C317.946 86.83 314.926 88.95 313.316 90.37C312.856 90.78 312.066 91.51 311.126 92.27C310.916 92.45 310.706 92.62 310.486 92.79C310.096 93.09 309.706 93.38 309.306 93.65C309.166 93.76 309.026 93.85 308.876 93.94C308.696 94.06 308.506 94.18 308.326 94.28C308.146 94.39 307.966 94.48 307.796 94.57C307.436 94.75 307.096 94.9 306.756 95C306.676 95.03 306.586 95.05 306.506 95.07C305.876 95.23 305.316 95.2 304.886 94.89C304.806 94.83 304.716 94.75 304.646 94.66C304.546 94.54 304.466 94.4 304.386 94.23C301.996 88.97 302.336 85.86 301.206 83.39C301.046 83.04 300.856 82.7 300.616 82.37C300.586 82.33 300.556 82.3 300.516 82.26C300.406 82.16 300.246 82.06 300.056 81.99H300.046C299.936 81.95 299.826 81.92 299.706 81.88C299.476 81.83 299.226 81.79 298.986 81.77C298.966 81.76 298.946 81.76 298.926 81.76C298.636 81.74 298.356 81.74 298.126 81.77C298.056 81.78 297.996 81.79 297.936 81.8C297.876 81.82 297.826 81.83 297.776 81.85C297.756 81.85 297.736 81.86 297.716 81.87C297.696 81.88 297.676 81.89 297.646 81.9C297.606 81.92 297.556 81.94 297.516 81.96C297.426 82 297.336 82.06 297.236 82.12C297.136 82.18 297.036 82.26 296.936 82.34C296.846 82.41 296.746 82.49 296.656 82.58C296.566 82.67 296.466 82.76 296.386 82.85C296.126 83.13 295.906 83.43 295.776 83.72L293.776 92.26C293.736 92.35 293.696 92.43 293.646 92.51C293.466 92.77 293.236 92.99 292.966 93.18C292.786 93.3 292.586 93.41 292.376 93.52C292.066 93.66 291.736 93.79 291.406 93.93C291.216 94 291.016 94.07 290.826 94.15C290.436 94.31 290.066 94.47 289.756 94.68L287.436 96.21C287.036 96.47 286.676 96.74 286.356 97.01C286.146 97.19 285.946 97.37 285.766 97.54C284.306 98.97 283.726 100.35 282.836 101.24C282.606 101.47 282.356 101.68 282.056 101.83C281.866 101.94 281.646 102.03 281.406 102.09C280.986 102.22 280.476 102.27 279.856 102.24C279.366 102.22 278.886 102.19 278.406 102.16C277.456 102.1 276.526 102.03 275.616 101.95C269.676 101.42 264.486 100.35 258.286 98.98C247.896 96.68 238.676 96.77 228.076 97.71L222.536 98.2C221.916 98.26 221.326 98.26 220.766 98.21C220.636 98.2 220.516 98.19 220.396 98.18C220.316 98.18 220.236 98.17 220.156 98.15C219.986 98.13 219.816 98.1 219.646 98.06C219.556 98.05 219.466 98.03 219.376 98.01C219.186 97.96 218.996 97.91 218.816 97.85C218.626 97.8 218.446 97.73 218.266 97.66C217.656 97.42 217.046 97.1 216.436 96.69C215.746 96.23 215.066 95.77 214.366 95.31C213.336 94.63 212.286 93.97 211.216 93.33H211.206C210.936 93.17 210.666 93.02 210.396 92.86C209.586 92.4 208.746 91.96 207.896 91.56C207.446 91.35 207.006 91.14 206.556 90.94C206.106 90.75 205.656 90.57 205.206 90.39L204.306 90.06C203.586 89.81 202.876 89.58 202.166 89.37C201.896 89.29 201.626 89.21 201.356 89.14H201.346C199.176 88.56 196.996 88.17 194.776 87.89C193.886 87.78 192.986 87.68 192.076 87.6C190.256 87.43 188.396 87.3 186.466 87.18C185.946 87.15 185.436 86.93 184.906 86.58C184.326 86.21 183.726 85.68 183.066 85.08C182.906 84.94 182.736 84.78 182.566 84.62C182.116 84.21 181.646 83.78 181.126 83.34C181.046 83.28 180.966 83.21 180.886 83.14C180.666 82.96 180.466 82.79 180.276 82.6C180.086 82.43 179.896 82.25 179.726 82.08C179.606 81.97 179.496 81.86 179.396 81.75C178.316 80.63 177.566 79.58 176.446 78.43C176.376 78.35 176.296 78.28 176.216 78.2C176.136 78.12 176.056 78.04 175.976 77.96C175.896 77.88 175.816 77.8 175.726 77.72C175.386 77.4 174.996 77.08 174.566 76.73C174.466 76.65 174.346 76.56 174.236 76.47C173.896 76.21 173.526 75.94 173.116 75.66L167.226 71.64C166.716 71.29 166.216 70.96 165.716 70.62C165.216 70.3 164.706 69.98 164.216 69.67C163.226 69.06 162.246 68.49 161.266 67.96C155.406 64.76 149.676 62.91 142.366 61.51C142.316 61.5 142.266 61.49 142.216 61.47C142.106 61.44 141.986 61.4 141.876 61.34C141.766 61.29 141.656 61.23 141.556 61.16C141.396 61.06 141.266 60.96 141.196 60.86C141.046 60.67 141.336 59.87 141.506 59.67C143.266 57.48 143.866 57.05 144.126 55.96C144.146 55.84 144.176 55.71 144.196 55.57C144.216 55.43 144.226 55.28 144.246 55.12C144.266 54.87 144.276 54.59 144.296 54.26C144.296 54.15 144.306 54.04 144.306 53.92C144.316 53.68 144.326 53.42 144.336 53.14C144.346 53 144.346 52.85 144.356 52.69C144.356 52.58 144.366 52.46 144.366 52.33C144.376 52.08 144.386 51.82 144.396 51.54C144.406 51.4 144.406 51.26 144.416 51.11C144.926 50.4 145.926 50.4 146.856 50.17C146.926 50.16 146.996 50.14 147.066 50.12C147.506 50 147.926 49.81 148.246 49.44C148.266 49.42 148.276 49.4 148.296 49.37C148.566 48.95 148.686 47.71 148.526 47.25L147.046 42.99C146.236 40.63 146.546 39.68 147.026 38.49C147.056 38.4 147.096 38.3 147.136 38.21C147.156 38.15 147.176 38.1 147.206 38.04C147.296 37.81 147.386 37.57 147.476 37.3C147.616 36.86 147.746 36.36 147.846 35.76C148.006 34.74 148.066 33.42 147.906 31.6C147.836 30.85 147.736 30.02 147.586 29.09L146.706 23.56C146.626 23.04 146.696 22.6 146.876 22.17C146.896 22.1 146.926 22.03 146.966 21.97C147.016 21.85 147.086 21.73 147.156 21.61C147.306 21.33 147.496 21.06 147.706 20.77C147.766 20.67 147.846 20.56 147.916 20.45C148.166 20.08 148.426 19.68 148.676 19.23C148.746 19.09 148.826 18.94 148.896 18.79C149.386 17.75 149.756 16.43 149.726 14.59C149.706 12.83 149.066 11.4 147.946 10.36C147.616 10.06 147.246 9.78 146.826 9.54H146.816C146.546 9.39 146.256 9.25 145.946 9.12C145.786 9.06 145.626 9 145.456 8.95C143.266 8.25 141.086 7.56001 138.916 6.88001C137.466 6.43001 136.016 5.99 134.556 5.56C133.096 5.13 131.636 4.72 130.156 4.31C129.416 4.11 128.666 3.91001 127.916 3.72001C125.206 3.02001 122.416 2.73001 119.656 2.88001C118.966 2.92001 118.266 2.98 117.586 3.07C117.246 3.12 116.896 3.17 116.556 3.23C116.206 3.29 115.866 3.36 115.526 3.43C115.306 3.48 115.086 3.53001 114.866 3.58001C114.436 3.70001 114.006 3.83001 113.576 3.97001C107.446 6.12001 102.646 11.84 100.496 17.78C98.3255 23.8 98.0855 30.02 99.6255 36.2C99.9955 37.69 100.376 39.35 100.656 41.06C100.726 41.46 100.786 41.86 100.836 42.26C100.886 42.59 100.926 42.93 100.956 43.26C100.986 43.54 101.016 43.81 101.036 44.09C101.056 44.22 101.066 44.36 101.066 44.5C101.086 44.72 101.096 44.94 101.106 45.16C101.146 45.89 101.146 46.61 101.106 47.32C101.066 48.04 100.986 48.74 100.866 49.41C100.796 49.75 100.726 50.08 100.636 50.4C100.626 50.45 100.606 50.5 100.586 50.55C100.516 50.7 100.396 50.84 100.246 50.99C99.8955 51.33 99.3755 51.65 98.8855 51.92C98.6955 52.02 98.5155 52.11 98.3555 52.19C98.3155 52.21 98.2755 52.23 98.2355 52.25C98.1355 52.3 98.0455 52.34 97.9655 52.38C95.4655 53.56 93.0456 54.37 90.3156 54.64C89.4156 54.73 88.5455 54.87 87.6855 55.03C87.5155 55.06 87.3455 55.1 87.1755 55.14C85.1355 55.58 83.1755 56.2 81.1555 56.86C80.4855 57.09 79.8155 57.31 79.1255 57.54C78.9055 57.61 78.6855 57.67 78.4555 57.72C78.2155 57.77 77.9855 57.82 77.7355 57.85C77.2455 57.93 76.7455 57.97 76.2255 58.01C75.2055 58.08 74.1555 58.1 73.2055 58.17C72.6755 58.21 72.1455 58.27 71.6255 58.36C71.2355 58.41 70.8455 58.49 70.4555 58.57C63.8055 59.98 58.3955 64.56 56.0255 71.14H56.0155C55.9855 71.23 55.9555 71.32 55.9355 71.4C55.8455 71.65 55.7655 71.9 55.6855 72.16C55.3755 73.11 55.1455 74.07 54.9655 75.04C54.3255 78.47 54.4455 81.97 55.3155 85.48C55.7055 87.03 55.7055 88.31 55.5355 89.6C55.4955 89.9 55.4455 90.21 55.3855 90.52C55.3055 90.94 55.2055 91.36 55.1155 91.8C55.0755 91.99 55.0255 92.19 54.9855 92.4C54.9155 92.67 54.8555 92.96 54.7855 93.25C54.7255 93.57 54.6555 93.89 54.5855 94.23C54.5755 94.28 54.5655 94.33 54.5655 94.38C54.4155 95.12 54.2855 95.91 54.1855 96.8C54.1555 97.03 54.1355 97.27 54.1155 97.51C54.0755 97.96 54.0355 98.44 54.0155 98.94C54.0055 99.24 53.9855 99.55 53.9755 99.86C53.9755 100.39 53.9755 100.94 53.9755 101.52C53.9855 101.86 53.9856 102.22 54.0056 102.59C54.0256 102.96 54.0455 103.34 54.0655 103.72C54.0855 104.08 54.1155 104.44 54.1455 104.8C54.1955 105.53 54.2555 106.25 54.3155 106.97C54.3855 107.69 54.4555 108.41 54.5355 109.13C54.6655 110.22 54.8255 111.31 55.0355 112.4C55.1955 113.25 55.3655 114.1 55.5455 114.94C56.7655 120.82 58.3255 126.45 60.3755 132.18C61.6455 135.74 62.9855 139.25 64.3555 142.74C64.8055 143.9 65.2655 145.06 65.7355 146.21C66.9755 149.31 68.2455 152.37 69.5155 155.44C71.4355 160.04 73.3956 164.64 75.3456 169.27L78.0656 175.74C79.8856 180.06 82.9255 188.84 81.8955 193.37C81.8655 193.5 81.7855 193.63 81.6655 193.75C81.4155 194.02 80.9955 194.27 80.5555 194.45C80.0955 194.65 79.6255 194.77 79.3355 194.75L70.8755 194.26C69.7855 194.2 68.7355 194.14 67.6955 194.08H67.6755C66.5055 194.02 65.3755 193.97 64.2655 193.93C63.5255 193.91 62.7955 193.89 62.0755 193.87C59.6055 193.81 57.2355 193.81 54.9055 193.9C52.7155 193.98 50.5455 194.14 48.3455 194.4C47.4555 194.5 46.5555 194.62 45.6455 194.76C44.2855 194.96 42.9055 195.2 41.4855 195.49C40.4655 195.7 39.4355 195.93 38.3755 196.18C37.3155 196.43 36.2255 196.71 35.1155 197.01C34.3955 197.2 33.6655 197.42 32.9255 197.64C31.8155 197.99 30.6655 198.37 29.5155 198.78C29.1355 198.92 28.7455 199.06 28.3555 199.21C27.5855 199.51 26.8055 199.82 26.0255 200.14C25.2455 200.47 24.4655 200.82 23.6955 201.18C22.9155 201.54 22.1455 201.92 21.3755 202.32C18.3155 203.9 15.3555 205.76 12.7455 207.9C12.0955 208.44 11.4655 208.99 10.8555 209.56C10.5555 209.84 10.2655 210.13 9.97554 210.43C7.36554 213.08 5.31553 216.08 4.15553 219.46C1.84553 226.17 2.36553 235.53 7.95553 240.8C8.53553 241.34 9.13553 241.86 9.76553 242.35C10.2355 242.72 10.7155 243.07 11.2155 243.41C11.7055 243.75 12.2155 244.07 12.7255 244.38C13.2455 244.69 13.7655 244.98 14.2955 245.26C14.5655 245.4 14.8255 245.54 15.0955 245.67C15.3655 245.8 15.6455 245.94 15.9155 246.06C21.3955 248.57 26.7555 250.67 32.4355 252.73C33.6655 253.18 34.9055 253.6 36.1455 254C37.3855 254.41 38.6455 254.8 39.8955 255.16C44.0755 256.38 48.3255 257.36 52.6255 258.1C53.2055 258.2 53.7755 258.3 54.3455 258.4C54.9155 258.5 55.4855 258.59 56.0555 258.69C57.1955 258.87 58.3255 259.03 59.4755 259.13L66.9555 259.78C67.0855 259.79 67.2755 259.81 67.5155 259.82C67.6355 259.83 67.7755 259.84 67.9155 259.85C68.0655 259.86 68.2255 259.87 68.3855 259.88C68.6455 259.9 68.9155 259.92 69.2155 259.94C69.4155 259.96 69.6256 259.97 69.8456 259.99C69.9456 259.99 70.0555 260.01 70.1755 260.02C70.6255 260.05 71.1055 260.09 71.6055 260.14C72.2355 260.2 72.9056 260.27 73.5956 260.34C73.7356 260.36 73.8755 260.37 74.0155 260.39C74.2955 260.42 74.5755 260.45 74.8655 260.49C75.4255 260.56 76.0055 260.64 76.5855 260.72C76.8655 260.76 77.1555 260.8 77.4455 260.85C77.5855 260.88 77.7355 260.9 77.8755 260.92C78.1555 260.97 78.4455 261.02 78.7255 261.07C79.4255 261.2 80.1155 261.34 80.7755 261.5C81.1655 261.59 81.5555 261.69 81.9255 261.8C82.1655 261.87 82.4055 261.94 82.6355 262.01C82.8655 262.09 83.0955 262.16 83.3055 262.24C83.8455 262.44 84.3356 262.65 84.7556 262.88C84.9256 262.98 85.0755 263.07 85.2255 263.17C86.2255 263.85 86.6555 264.66 86.1755 265.64L81.2755 275.66C80.7655 276.7 80.0755 277.66 79.2355 278.47C79.1155 278.59 78.9955 278.71 78.8655 278.81C78.6155 279.04 78.3555 279.25 78.0855 279.43C77.9555 279.53 77.8155 279.62 77.6755 279.71C76.9855 280.15 76.2355 280.49 75.4555 280.71L69.4555 282.4C69.2055 282.47 68.9655 282.57 68.7255 282.69C68.4955 282.81 68.2655 282.95 68.0555 283.11C67.8455 283.27 67.6355 283.45 67.4455 283.64C65.9755 285.15 65.3255 287.52 66.5155 288.82C67.1055 289.47 68.8055 289.96 69.7655 289.96L86.8855 290.03C87.1455 290.03 87.4155 290.02 87.6755 289.99C87.7255 289.99 87.7755 289.99 87.8255 289.98C88.0455 289.96 88.2655 289.93 88.4755 289.88C88.4955 289.88 88.5156 289.88 88.5356 289.88C88.6056 289.87 88.6655 289.86 88.7255 289.85C88.8355 289.83 88.9455 289.8 89.0555 289.77C89.3755 289.7 89.6755 289.61 89.9755 289.51C90.3555 289.38 90.7256 289.22 91.0956 289.04C91.6356 288.78 92.1555 288.47 92.6455 288.12C92.6555 288.12 92.6555 288.11 92.6555 288.11C93.1555 287.76 93.6155 287.38 94.0555 286.96C94.4955 286.54 94.9155 286.1 95.2955 285.63C100.186 279.63 101.676 277.81 105.866 274.44C106.196 274.18 106.546 273.9 106.916 273.61C107.846 272.88 108.906 272.07 110.146 271.14C110.396 270.95 110.636 270.76 110.876 270.57C111.346 270.2 111.816 269.81 112.256 269.41C112.486 269.21 112.706 269 112.916 268.79C113.136 268.58 113.346 268.37 113.556 268.15C113.806 267.88 114.056 267.61 114.296 267.33C114.496 267.1 114.686 266.87 114.866 266.62C115.006 266.45 115.146 266.27 115.276 266.08C115.536 265.71 115.766 265.34 115.966 264.95C116.166 264.56 116.336 264.16 116.466 263.75C116.596 263.35 116.696 262.94 116.766 262.52C116.836 262.11 116.866 261.69 116.866 261.27C116.866 259.57 116.316 257.88 115.186 256.41C115.006 256.17 114.826 255.95 114.636 255.74C114.446 255.53 114.246 255.32 114.046 255.12C113.646 254.72 113.216 254.33 112.776 253.96H112.766C111.886 253.23 110.946 252.54 110.006 251.84L107.546 250.51C101.816 247.42 95.9355 245.21 89.5855 242.91C92.3355 242.31 95.0255 241.69 97.6455 241.01C98.5655 240.77 99.4755 240.53 100.386 240.28C100.896 240.14 101.406 240 101.906 239.85C105.446 238.84 108.886 237.69 112.276 236.34C113.566 235.83 114.846 235.29 116.126 234.72C116.976 234.34 117.826 233.95 118.666 233.54L127.126 229.43C127.586 229.21 128.086 229.05 128.596 228.95C129.656 228.74 130.786 228.79 131.816 229.06C132.016 229.11 132.206 229.18 132.396 229.25H132.406L146.516 234.62C147.476 234.98 148.426 235.34 149.386 235.69C151.286 236.4 153.186 237.08 155.096 237.74C156.046 238.07 156.996 238.39 157.946 238.71C159.226 239.14 160.496 239.55 161.776 239.95C163.066 240.35 164.346 240.74 165.636 241.1C167.566 241.65 169.516 242.18 171.486 242.66C173.456 243.15 175.446 243.6 177.456 244.01C180.436 244.61 183.396 245.18 186.356 245.71C189.686 246.31 193.006 246.87 196.346 247.37C199.676 247.87 203.016 248.33 206.386 248.72C208.626 248.99 210.876 249.23 213.146 249.44C216.306 249.74 219.176 250.34 222.046 251.33C222.996 251.66 223.956 252.04 224.926 252.46C226.136 252.99 227.356 253.47 228.586 253.91C232.276 255.23 236.056 256.17 239.966 256.84C240.726 256.97 241.436 257.15 242.126 257.37C244.196 258.04 246.016 259.1 247.896 260.37L258.376 267.42C263.106 270.6 268.446 271.88 274.116 272.3C274.566 272.33 275.006 272.38 275.456 272.43C275.846 272.48 276.226 272.53 276.616 272.59C276.946 272.64 277.286 272.7 277.616 272.76C279.946 273.18 282.246 273.76 284.616 274.19L301.416 277.22L308.996 278.75C310.436 279.04 311.846 279.38 313.246 279.77C313.766 279.92 314.286 280.07 314.796 280.23C315.826 280.55 316.846 280.9 317.846 281.28C320.366 282.22 322.836 283.33 325.286 284.57C325.686 284.77 326.066 285.01 326.436 285.27C327.046 285.71 327.616 286.23 328.176 286.78C329.396 288 330.516 289.39 331.706 290.54C332.036 290.85 332.366 291.15 332.706 291.42C332.816 291.51 332.936 291.6 333.046 291.68C333.276 291.84 333.506 292 333.746 292.14C333.866 292.21 333.986 292.28 334.116 292.34C334.366 292.46 334.606 292.56 334.866 292.65C335.466 292.86 336.106 292.96 336.806 292.92C342.726 292.58 349.496 293.13 355.356 293.87C355.536 293.89 355.706 293.91 355.876 293.94C357.076 294.09 358.226 294.26 359.326 294.42C359.736 294.48 360.126 294.54 360.516 294.6C361.366 294.73 362.166 294.87 362.926 294.99C363.356 295.07 363.776 295.14 364.176 295.21C364.516 295.27 364.846 295.32 365.156 295.38C365.616 295.47 366.046 295.55 366.436 295.62C367.436 295.81 368.256 295.97 368.836 296.09C369.556 296.24 370.296 296.34 371.026 296.38C375.026 296.6 378.926 296.65 382.896 296.41C383.006 296.4 383.106 296.39 383.206 296.37C383.516 296.31 383.796 296.2 384.036 296.05C384.146 295.98 384.246 295.91 384.346 295.82C384.406 295.77 384.456 295.72 384.506 295.67C385.226 294.94 385.516 293.8 385.196 292.8L385.166 292.79ZM327.906 96.84L328.456 97.18L320.936 99.61C318.866 100.27 316.876 101.21 314.956 102.25C313.756 102.9 312.846 103.39 311.176 103.6C314.246 98.51 323.086 97.43 327.906 96.84ZM306.516 100.28C308.496 98.66 310.216 97.31 312.516 95.78C311.826 97.31 311.036 98.16 310.146 99.27L306.476 103.84C305.286 102.84 305.466 101.14 306.516 100.28ZM141.546 11.56C144.646 12.8 143.636 12.14 144.806 13.72C144.936 13.9 144.066 14.4 143.796 14.35C141.356 13.85 135.226 11.09 133.676 8.93C136.586 9.6 138.876 10.49 141.546 11.56ZM109.946 31.37C114.026 32.22 114.066 37.35 117.196 36.36C119.686 35.57 117.346 29.56 124.766 27.97L126.906 27.51C126.436 23.31 124.946 24.33 123.546 18.8C123.396 18.22 123.466 16.73 123.826 16.25C126.256 13.04 130.946 14.43 133.936 16.59C136.086 18.14 137.696 20.14 139.316 22.33C140.596 24.05 141.886 22.95 143.846 23.98C145.306 31.29 144.796 32.74 143.856 39.44C143.536 41.71 145.756 46.46 144.266 46.94C141.496 47.82 139.756 45.48 138.586 48.48L140.756 50.47C140.946 50.65 141.266 51.1 141.366 51.31C141.516 51.58 140.846 52.33 140.536 52.43L136.576 53.62C136.466 53.65 136.056 53.93 135.956 53.99C135.796 54.08 136.356 54.64 136.546 54.69L140.486 55.6C140.676 55.65 141.326 56.03 141.256 56.21C141.176 56.39 140.856 57.03 140.676 57.12L136.536 59.14C129.336 56.88 127.056 55.1 119.906 53.15L116.306 52.16C114.146 51.57 115.936 48.39 114.516 45.28L112.536 45.38C111.146 45.45 109.506 45.09 108.456 44.01C106.256 41.74 104.936 38.7 105.066 35.54C105.176 32.92 107.326 30.83 109.946 31.37ZM86.9955 59.51C92.0255 58.19 93.9955 58.61 98.3355 56.77C103.866 54.43 103.356 54.73 109.686 55.22C115.696 55.68 120.946 57.6 126.396 59.81L135.346 63.46C139.246 65.04 143.356 65.4 147.506 66.13C152.246 66.97 167.056 74.66 171.146 78.37C169.796 78.27 168.786 77.79 167.636 77.32C159.026 73.84 154.246 77.35 148.956 73.86L147.126 70.38L140.936 71.8C134.556 73.27 122.746 73.57 115.936 72.18C117.846 69.19 123.386 68.44 126.606 67.53C121.766 64.74 111.096 68.09 105.326 70.03C104.896 70.18 103.756 70.1 103.426 69.93C103.636 67.11 103.596 64.43 101.816 62.39C100.346 60.7 97.8355 60.27 95.6055 60.38C88.5955 60.72 82.1755 62.85 76.2155 66.43C75.8355 66.67 75.1856 66.86 74.5056 67.06C76.8156 63.48 82.9455 60.58 86.9955 59.51ZM141.716 76.42C137.516 78.48 133.206 79.89 128.606 81.25C122.236 83.14 115.926 83.58 109.306 82.42C100.996 80.96 103.356 81.84 97.8755 84.3C94.0655 86.02 91.5555 86.09 87.1955 86.07L91.7556 84.47C94.9956 83.33 97.8655 81.71 100.676 79.71C101.566 79.08 102.386 79.11 103.466 79.36C117.876 82.67 126.406 80.15 139.906 76.3C140.256 76.2 141.176 76.31 141.716 76.42ZM76.4955 131.07C75.5855 130.24 73.2455 123.39 74.8355 122.41L77.2655 124.13L76.4955 131.07ZM82.5656 136.36C84.4256 134.01 86.3355 131.93 88.6255 130.11C89.6055 129.34 90.2655 128.79 91.2055 127.83C89.0555 127.53 83.0855 129.29 82.6055 128.62C82.4655 128.42 82.2955 127.81 82.3055 127.55L82.6255 123.44C83.0955 117.24 76.7055 118.91 76.1555 111.98C76.0055 110.07 75.8855 108.4 76.5255 106.33L78.7856 111.09C79.4556 112.51 81.3756 114.05 82.8156 114.77C85.2256 115.97 87.6755 116.61 90.2155 117.38C94.2355 118.62 97.4956 119.68 101.286 117.95C104.056 116.68 103.356 120.32 111.596 122.24C115.056 123.05 118.586 123.06 121.786 121.49C118.966 121.24 116.166 121.1 113.496 120.11C107.766 117.99 104.556 112.85 105.006 106.64C103.816 108.42 102.596 110.29 100.836 111.56C96.1755 114.93 89.1655 112.65 85.3655 108.51C82.1455 105 79.1655 98.66 79.2255 93.69C84.9055 93.36 89.8955 92.6 95.2155 91.02C97.3255 90.39 99.5655 89.89 101.696 89.58C104.576 89.15 106.606 91.24 106.996 93.87L107.436 96.84C108.286 96.41 108.766 96.14 109.476 95.74L115.816 92.17C121.476 88.99 127.576 87.12 134.056 86.09C136.566 85.69 139.156 86.03 141.646 86.59L146.586 87.71C148.966 84.63 151.706 82.67 155.146 81.23C163.636 77.68 171.326 81.24 177.496 87.23C177.916 87.64 178.806 88.96 178.506 89.44C178.116 90.06 177.186 90.93 176.646 91.43C185.086 90.18 196.946 91.16 204.626 94.62C208.576 96.4 210.226 97.55 213.576 100.22C214.546 100.99 216.096 102.21 217.356 102.37C220.636 102.77 223.686 102.3 226.916 102L233.746 101.35C241.506 100.62 250.506 101.85 258.156 103.51C265.616 105.13 272.916 105.94 280.576 106.35C285.806 106.63 282.476 101.42 297.116 104.48C297.266 104.28 297.696 103.24 297.676 102.89L297.276 94.9C297.126 91.89 297.336 89.02 297.936 86.03C298.296 85.28 298.396 85.27 298.616 86.02C299.426 91.23 300.496 96.05 301.936 101.04C302.326 102.37 302.346 103.64 302.406 105.37C295.526 107.35 291.326 107.21 284.346 110.22L283.116 107.35C282.556 108.24 282.286 109.08 282.196 110.05L282.106 111.03C282.086 111.3 281.376 111.42 281.036 111.47L269.116 113.14C259.356 114.51 249.746 114.99 239.886 114.71C237.446 114.64 235.606 114.44 232.996 114.91L237.256 117.71L233.006 117.54C230.786 117.45 228.676 117.12 226.496 116.75C219.336 115.52 217.876 113.07 212.446 112.54C208.396 112.14 196.406 117.34 181.336 114.29C176.816 113.37 172.906 111.15 169.536 108.08C169.076 107.67 168.606 106.87 168.356 106.15C182.656 113.04 197.456 112.02 211.266 107.84C201.326 106.33 195.406 107 185.716 105.35C179.486 104.29 173.726 102.53 168.076 99.71C167.056 99.2 165.786 97.86 165.666 96.69C165.556 95.51 166.736 94.06 167.626 93.45L172.426 90.16C173.026 90.21 173.346 90.05 173.246 89.69C169.886 89.77 166.736 90.68 163.916 92.52L153.396 99.4C149.726 101.79 146.346 104.02 143.726 107.59C140.876 111.48 138.676 115.86 138.256 120.79C138.626 120.05 142.156 114.66 142.706 117.51C143.476 121.52 144.356 125.55 146.116 129.23L147.596 118.43C147.866 116.44 148.306 114.44 148.926 112.54C149.466 110.91 151.706 110.42 153.126 111.08C156.466 112.65 158.236 117.46 157.256 121.02C155.496 127.39 151.566 135.82 144.876 139.08L144.336 134.74C144.286 134.36 144.216 133.88 144.176 133.69C144.136 133.44 143.296 133.56 143.006 133.69L136.666 136.4C135.056 137.08 133.866 138.13 132.506 139.54C133.916 140.96 138.326 139.98 139.776 143.71C141.996 149.41 142.396 157.13 142.536 163.41C142.586 166.04 141.096 168.24 138.816 169.4C135.616 171.04 131.606 171.11 128.556 168.85C126.296 167.16 124.376 159.64 123.436 156.76L122.306 153.32C121.246 154.09 120.246 154.93 119.226 155.38C114.686 157.37 105.856 156.81 102.536 152.62C100.706 150.32 99.4355 142.75 102.186 142.52L108.566 141.96C109.366 141.89 110.026 141.67 110.836 141.32L105.816 139.55C104.166 138.98 101.846 138.42 100.746 136.95C99.1555 134.84 98.9555 131.73 99.4655 129.26L100.436 124.65C98.5355 126.59 97.0755 128.56 96.5455 131.14C94.9655 138.86 95.8855 141.05 95.1455 147.6C94.7655 150.91 88.6655 149.67 85.6755 146.25C83.7555 144.05 80.3456 139.19 82.5656 136.37V136.36ZM87.0956 159.74C91.7056 162.36 92.1056 161.28 96.5656 162.27L97.4555 166.71C98.8055 173.38 105.626 172.98 104.656 182.74C96.6555 180.79 100.236 174.54 95.4255 171.1C89.3155 166.73 83.8756 157.9 87.0956 159.74ZM94.8655 184.7C91.7855 183.17 87.7255 175.67 87.5755 172.45C91.1655 175.99 93.5255 180.14 94.8655 184.7ZM50.5855 246.57C46.0455 244.75 41.8255 241.26 37.7455 240.01L32.9455 238.54C37.6655 235.97 45.7755 236.08 50.9355 236.93C56.8255 237.89 64.7655 239.37 69.6955 242.57C71.0755 243.46 72.1155 244.84 72.9455 246.3C73.3755 247.07 72.8255 248.5 72.0155 248.69C65.5855 250.25 56.6055 248.98 50.5855 246.57ZM90.5555 270.61C92.4355 268.75 94.9255 267.39 97.5255 266.87C99.1755 266.54 102.746 266.62 103.486 267.85C103.626 268.08 103.326 268.88 103.106 269.13L99.2455 273.55C96.6555 276.51 93.8855 279.18 91.8855 282.58C89.6855 286.35 81.4655 286.23 80.9855 286.21L71.9755 285.86L77.6855 283.99C82.6255 282.36 85.8355 281.81 87.3555 276.66C88.0055 274.46 88.9055 272.23 90.5555 270.61ZM78.4555 233.81C73.0255 233.19 67.8255 232.2 62.5955 230.44C71.7255 228.62 77.6355 227.46 85.0855 222.47C85.3055 222.26 85.4355 222.11 85.6455 221.82L81.5956 222.59C76.7756 223.5 71.9955 224.2 66.8755 224.58C62.5655 224.89 58.5955 224.95 54.5355 225.51L47.6855 226.45C46.6455 226.59 45.5155 226.37 44.5755 225.89C44.7255 225.22 44.9555 224.22 45.1855 223.86C48.8655 218.01 54.0155 211.91 59.5255 207.58C52.3455 205.79 42.3355 206.15 37.0555 209.73C40.3055 209.8 46.2255 208.72 48.6155 210.38C43.4255 216.33 35.9655 220.75 28.3955 222.62C23.9255 223.72 18.2355 224.59 14.1755 222.07C12.2955 220.89 11.8455 218.37 12.6855 216.43C13.8855 213.66 15.8555 211.43 18.2655 209.68C28.5555 202.25 42.7056 199 55.2556 198.26L57.9655 198.1C59.2955 198.03 60.7055 198.09 62.0555 198.16L64.8355 198.29C67.1055 198.4 74.9755 199.13 76.1855 200.49C77.0655 201.47 71.9055 203.82 71.1955 204.13L67.4655 205.71L72.4455 206.2C74.7555 206.43 77.0655 206.83 79.3255 207.36L82.7556 208.15C85.5856 208.81 88.3055 209.76 90.9755 210.93C98.3455 214.16 101.046 220.01 104.016 227.05C103.646 227.55 102.986 228.29 102.506 228.53C95.4656 232.1 86.3155 234.7 78.4555 233.81ZM115.756 182.11C112.646 182.04 112.216 177.22 111.866 174.81C110.876 168.04 107.196 169 105.576 163C109.376 163.02 112.316 162.75 115.626 162.09L118.246 161.57L121.696 172.09C122.416 174.27 122.496 176.78 121.426 178.85C120.346 180.93 118.166 182.16 115.756 182.11ZM143.346 198.27C139.826 199.95 136.186 200.09 132.486 198.34C127.126 195.81 124.456 190.13 126.116 184.45C127.446 179.9 131.246 176.74 136.026 175.87C142.306 174.72 148.286 178.78 149.896 184.98C151.316 190.47 148.376 195.86 143.346 198.27ZM168.006 231.57C162.656 230.16 153.546 228.16 151.036 222.17C155.086 223.56 158.636 225.3 162.396 227.02C164.506 227.98 166.576 228.88 168.536 230.09L171.436 231.88C170.076 231.94 169.166 231.88 168.006 231.57ZM176.016 226.91C173.776 225.32 166.036 219.47 165.236 217.01C167.636 218.39 169.646 219.61 171.886 221.07L181.536 227.36L191.716 234.14C193.776 235.52 195.626 236.6 197.616 238.37C189.816 235.99 182.776 231.71 176.016 226.91ZM364.286 291C362.276 290.55 360.456 289.59 358.676 288.63L357.166 287.81C353.826 286.01 350.656 284.17 347.206 282.55C342.206 280.21 337.266 278.35 332.026 276.44C321.796 272.72 312.166 268.4 302.496 263.4C290.576 257.25 275.336 250.78 262.406 247.57L253.196 245.29C253.056 245.15 253.556 244.27 253.816 244.19L257.326 243.1C256.806 242.9 255.786 242.46 255.116 242.31L244.086 239.96C237.786 238.61 232.326 235.56 228.096 230.72C227.636 230.2 226.876 229.65 226.326 229.28C226.536 231.48 225.686 233.22 223.636 234.13C216.636 237.21 203.286 230.76 196.616 226.38L205.616 225.63C207.696 225.45 209.866 225.15 211.976 224.83L216.856 224.08L225.896 222.76C221.426 218.48 215.576 214.6 209.456 213.8C211.286 215.89 212.666 217.36 213.976 219.57C214.346 220.2 213.516 221.57 212.786 221.63C210.656 221.81 208.716 221.81 206.646 221.5C198.416 220.3 189.526 217.41 181.716 214.42C172.296 210.81 164.876 207.92 157.236 201.06L159.586 196.99C160.866 194.78 164.676 187.47 167.446 188.1C186.356 192.4 208.326 200.72 222.466 214.26C226.386 218.01 227.016 220.25 229.796 224.38C233.056 225.27 236.146 226.19 239.296 227.39C244.236 229.28 247.126 233.05 251.536 234.56L256.076 236.11L264.116 238.75C280.256 244.06 295.876 252.59 310.386 261.34C316.576 265.08 322.536 268.46 328.986 271.7C335.106 274.78 341.426 276.52 348.246 277.24L359.496 278.42C362.026 278.69 366.806 279.55 369.026 280.73C371.396 281.98 373.256 283.43 375.186 285.32L373.416 285.35H372.796C372.676 285.34 372.986 285.82 373.096 285.92L377.386 289.59C377.796 289.94 378.636 291.16 378.386 291.61C377.376 293.49 366.486 291.49 364.286 291Z" fill="#112260"/>
<path d="M128.946 144.26C127.736 145.43 126.466 146.63 125.066 147.42C122.356 148.95 119.356 147.96 117.656 145.55C115.416 142.36 114.916 138.43 116.126 134.61C117.026 139.08 119.516 143.56 124.726 143.95L128.946 144.26Z" fill="#112260"/>
<path d="M134.215 117.41C134.105 118.24 133.275 119.56 132.165 120.07C131.285 120.46 129.715 120.14 129.305 119.51C128.175 117.77 128.405 115 130.125 113.95C130.825 113.52 132.555 113.47 133.085 114.04C133.925 114.95 134.375 116.27 134.215 117.41Z" fill="#112260"/>
<path d="M236.916 105.82L219.306 106.52C219.236 106.56 218.716 106.21 218.886 106.15L219.636 105.88C221.496 105.21 224.186 104.19 226.246 104.17L229.956 104.15C232.376 104.55 234.626 104.99 236.916 105.82Z" fill="#112260"/>
<path d="M140.656 127.15C139.826 129.06 136.116 131.6 134.306 131.01L129.396 129.41L131.926 128.26C134.586 127.04 137.606 127.03 140.656 127.15Z" fill="#112260"/>
<path d="M200.195 213.54C187.955 212.38 174.966 206.88 165.156 198.38C170.356 199.05 174.865 200.59 179.605 202.45C186.955 205.32 193.555 209.05 200.195 213.54Z" fill="#112260"/>
<path d="M133.665 37.32C132.325 37.47 129.976 37.6 129.506 35.96C128.946 33.99 133.545 31.31 138.325 32.88C139.715 33.34 141.195 34.41 141.385 35.93C141.705 38.56 139.215 36.69 133.665 37.32Z" fill="#112260"/>
<path d="M113.096 42.74C111.836 43.07 110.766 42.89 109.846 42.14C106.916 39.76 106.196 34.91 108.136 33.76C109.456 32.97 111.646 33.99 112.526 35.62C112.886 36.3 112.296 37.28 111.686 37.42C109.606 40.14 112.796 41.23 113.096 42.74Z" fill="#112260"/>
<path d="M125.236 48.73C124.876 49.69 123.906 50.57 123.046 50.91C122.246 48.05 121.526 45.53 120.326 42.86C119.836 41.79 119.575 40.86 119.385 39.6C123.135 40.24 126.696 44.79 125.236 48.73Z" fill="#112260"/>
<path d="M144.106 183.76C142.746 182.2 139.926 181.94 138.386 183.29C136.496 184.98 136.326 187.61 136.886 189.92C137.446 192.22 139.246 193.6 141.776 193.23C143.546 192.96 144.816 191.92 145.186 190.25C145.676 188.06 145.676 185.54 144.106 183.76ZM141.336 191.12C140.866 191.31 139.786 190.65 139.606 190.12C138.986 188.25 139.036 184.86 141.106 184.75C141.446 184.73 142.226 185.23 142.396 185.54C143.416 187.36 142.806 190.53 141.336 191.12Z" fill="#112260"/>
<path d="M134.776 181.23V192.81C133.876 192.96 132.755 192.83 132.165 192.41L132.135 183.97L130.896 183.44C130.626 183.32 130.666 182.45 130.656 181.88L134.776 181.23Z" fill="#112260"/>
</svg>
